<svg width="538" height="621" viewBox="0 0 538 621" fill="none" xmlns="http://www.w3.org/2000/svg">
<path d="M138.749 583.28C139.162 583.36 139.542 583.507 139.889 583.72C140.236 583.92 140.529 584.173 140.769 584.48C141.009 584.787 141.196 585.14 141.329 585.54C141.462 585.94 141.529 586.373 141.529 586.84C141.529 587.467 141.409 588.027 141.169 588.52C140.942 589.027 140.609 589.46 140.169 589.82C139.742 590.18 139.222 590.453 138.609 590.64C137.996 590.84 137.309 590.94 136.549 590.94C135.536 590.94 134.642 590.76 133.869 590.4C133.096 590.053 132.476 589.547 132.009 588.88L133.349 587.36C133.669 587.853 134.082 588.24 134.589 588.52C135.096 588.8 135.736 588.94 136.509 588.94C137.389 588.94 138.062 588.753 138.529 588.38C139.009 588.007 139.249 587.447 139.249 586.7C139.249 585.927 138.982 585.32 138.449 584.88C137.916 584.44 137.129 584.22 136.089 584.22H135.549V582.5H136.149C137.042 582.5 137.729 582.293 138.209 581.88C138.689 581.453 138.929 580.92 138.929 580.28C138.929 579.64 138.716 579.173 138.289 578.88C137.862 578.573 137.309 578.42 136.629 578.42C135.949 578.42 135.349 578.567 134.829 578.86C134.309 579.153 133.896 579.573 133.589 580.12L132.209 578.62C132.396 578.3 132.649 578.013 132.969 577.76C133.289 577.493 133.649 577.267 134.049 577.08C134.462 576.88 134.902 576.733 135.369 576.64C135.849 576.533 136.342 576.48 136.849 576.48C137.502 576.48 138.096 576.567 138.629 576.74C139.176 576.913 139.642 577.153 140.029 577.46C140.429 577.767 140.736 578.14 140.949 578.58C141.162 579.02 141.269 579.507 141.269 580.04C141.269 580.44 141.209 580.82 141.089 581.18C140.969 581.54 140.796 581.867 140.569 582.16C140.356 582.453 140.096 582.7 139.789 582.9C139.482 583.087 139.136 583.213 138.749 583.28ZM149.434 578.36H142.554V576.34H152.914L145.814 590.54H143.314L149.434 578.36ZM159.213 588V577.54H161.413V588H159.213ZM159.213 575.82V573.4H161.413V575.82H159.213ZM173.436 588H171.236V582.14C171.236 581.153 171.076 580.44 170.756 580C170.45 579.547 169.99 579.32 169.376 579.32C169.056 579.32 168.736 579.38 168.416 579.5C168.096 579.62 167.796 579.793 167.516 580.02C167.236 580.233 166.983 580.493 166.756 580.8C166.543 581.093 166.376 581.42 166.256 581.78V588H164.056V577.54H166.056V579.64C166.456 578.933 167.036 578.38 167.796 577.98C168.556 577.567 169.396 577.36 170.316 577.36C170.943 577.36 171.456 577.473 171.856 577.7C172.256 577.927 172.57 578.24 172.796 578.64C173.036 579.027 173.203 579.48 173.296 580C173.39 580.507 173.436 581.047 173.436 581.62V588ZM181.712 587.46C181.432 587.593 181.046 587.747 180.552 587.92C180.059 588.08 179.532 588.16 178.972 588.16C178.626 588.16 178.299 588.113 177.992 588.02C177.686 587.927 177.412 587.787 177.172 587.6C176.946 587.413 176.766 587.173 176.632 586.88C176.499 586.573 176.432 586.207 176.432 585.78V579.24H175.052V577.54H176.432V574.1H178.632V577.54H180.912V579.24H178.632V585.08C178.659 585.453 178.772 585.727 178.972 585.9C179.186 586.06 179.446 586.14 179.752 586.14C180.059 586.14 180.352 586.087 180.632 585.98C180.912 585.873 181.119 585.787 181.252 585.72L181.712 587.46ZM187.722 588.2C186.909 588.2 186.169 588.06 185.502 587.78C184.835 587.487 184.262 587.093 183.782 586.6C183.315 586.107 182.949 585.533 182.682 584.88C182.429 584.227 182.302 583.533 182.302 582.8C182.302 582.067 182.429 581.373 182.682 580.72C182.949 580.053 183.315 579.473 183.782 578.98C184.262 578.473 184.835 578.08 185.502 577.8C186.169 577.507 186.915 577.36 187.742 577.36C188.555 577.36 189.289 577.507 189.942 577.8C190.609 578.093 191.175 578.487 191.642 578.98C192.109 579.46 192.462 580.027 192.702 580.68C192.955 581.32 193.082 581.993 193.082 582.7C193.082 582.86 193.075 583.013 193.062 583.16C193.049 583.293 193.035 583.407 193.022 583.5H184.642C184.682 583.967 184.789 584.387 184.962 584.76C185.149 585.133 185.382 585.46 185.662 585.74C185.955 586.007 186.282 586.213 186.642 586.36C187.015 586.507 187.402 586.58 187.802 586.58C188.095 586.58 188.382 586.547 188.662 586.48C188.955 586.4 189.222 586.293 189.462 586.16C189.702 586.013 189.915 585.84 190.102 585.64C190.289 585.44 190.435 585.22 190.542 584.98L192.422 585.52C192.062 586.307 191.462 586.953 190.622 587.46C189.795 587.953 188.829 588.2 187.722 588.2ZM190.902 581.98C190.862 581.54 190.749 581.133 190.562 580.76C190.389 580.387 190.162 580.073 189.882 579.82C189.602 579.553 189.275 579.347 188.902 579.2C188.529 579.053 188.135 578.98 187.722 578.98C187.309 578.98 186.915 579.053 186.542 579.2C186.182 579.347 185.862 579.553 185.582 579.82C185.302 580.073 185.075 580.387 184.902 580.76C184.729 581.133 184.622 581.54 184.582 581.98H190.902ZM200.757 579.44C199.903 579.467 199.143 579.667 198.477 580.04C197.823 580.4 197.357 580.92 197.077 581.6V588H194.877V577.54H196.917V579.88C197.277 579.16 197.743 578.587 198.317 578.16C198.903 577.72 199.53 577.48 200.197 577.44C200.33 577.44 200.437 577.44 200.517 577.44C200.61 577.44 200.69 577.447 200.757 577.46V579.44ZM205.297 588L201.297 577.54H203.557L206.557 586.14L209.577 577.54H211.657L207.657 588H205.297ZM213.216 588V577.54H215.416V588H213.216ZM213.216 575.82V573.4H215.416V575.82H213.216ZM222.8 588.2C221.987 588.2 221.247 588.06 220.58 587.78C219.914 587.487 219.34 587.093 218.86 586.6C218.394 586.107 218.027 585.533 217.76 584.88C217.507 584.227 217.38 583.533 217.38 582.8C217.38 582.067 217.507 581.373 217.76 580.72C218.027 580.053 218.394 579.473 218.86 578.98C219.34 578.473 219.914 578.08 220.58 577.8C221.247 577.507 221.994 577.36 222.82 577.36C223.634 577.36 224.367 577.507 225.02 577.8C225.687 578.093 226.254 578.487 226.72 578.98C227.187 579.46 227.54 580.027 227.78 580.68C228.034 581.32 228.16 581.993 228.16 582.7C228.16 582.86 228.154 583.013 228.14 583.16C228.127 583.293 228.114 583.407 228.1 583.5H219.72C219.76 583.967 219.867 584.387 220.04 584.76C220.227 585.133 220.46 585.46 220.74 585.74C221.034 586.007 221.36 586.213 221.72 586.36C222.094 586.507 222.48 586.58 222.88 586.58C223.174 586.58 223.46 586.547 223.74 586.48C224.034 586.4 224.3 586.293 224.54 586.16C224.78 586.013 224.994 585.84 225.18 585.64C225.367 585.44 225.514 585.22 225.62 584.98L227.5 585.52C227.14 586.307 226.54 586.953 225.7 587.46C224.874 587.953 223.907 588.2 222.8 588.2ZM225.98 581.98C225.94 581.54 225.827 581.133 225.64 580.76C225.467 580.387 225.24 580.073 224.96 579.82C224.68 579.553 224.354 579.347 223.98 579.2C223.607 579.053 223.214 578.98 222.8 578.98C222.387 578.98 221.994 579.053 221.62 579.2C221.26 579.347 220.94 579.553 220.66 579.82C220.38 580.073 220.154 580.387 219.98 580.76C219.807 581.133 219.7 581.54 219.66 581.98H225.98ZM242.721 577.54H244.821L240.421 588H238.601L236.661 583.14L234.721 588H232.901L228.481 577.54H230.581L233.961 585.88L235.481 582L233.661 577.56H235.461L236.661 580.84L237.841 577.56H239.641L237.841 582L239.361 585.88L242.721 577.54ZM249.829 588.2C248.989 588.2 248.149 588.067 247.309 587.8C246.482 587.52 245.769 587.127 245.169 586.62L246.049 585.22C246.676 585.673 247.296 586.02 247.909 586.26C248.522 586.487 249.149 586.6 249.789 586.6C250.442 586.6 250.956 586.473 251.329 586.22C251.716 585.967 251.909 585.607 251.909 585.14C251.909 584.7 251.696 584.38 251.269 584.18C250.842 583.98 250.176 583.76 249.269 583.52C248.616 583.347 248.056 583.18 247.589 583.02C247.122 582.86 246.742 582.673 246.449 582.46C246.156 582.247 245.942 582 245.809 581.72C245.676 581.44 245.609 581.1 245.609 580.7C245.609 580.167 245.709 579.693 245.909 579.28C246.122 578.867 246.409 578.52 246.769 578.24C247.142 577.947 247.576 577.727 248.069 577.58C248.562 577.433 249.096 577.36 249.669 577.36C250.456 577.36 251.189 577.48 251.869 577.72C252.549 577.96 253.156 578.307 253.689 578.76L252.749 580.08C251.776 579.307 250.742 578.92 249.649 578.92C249.089 578.92 248.616 579.04 248.229 579.28C247.856 579.507 247.669 579.873 247.669 580.38C247.669 580.593 247.709 580.773 247.789 580.92C247.869 581.067 247.996 581.193 248.169 581.3C248.356 581.407 248.589 581.507 248.869 581.6C249.162 581.68 249.522 581.773 249.949 581.88C250.656 582.053 251.262 582.227 251.769 582.4C252.289 582.573 252.716 582.78 253.049 583.02C253.382 583.247 253.629 583.52 253.789 583.84C253.949 584.147 254.029 584.52 254.029 584.96C254.029 585.96 253.649 586.753 252.889 587.34C252.142 587.913 251.122 588.2 249.829 588.2Z" fill="#296BAD"/>
<path d="M101.639 611.9C101.639 612.54 101.499 613.127 101.219 613.66C100.952 614.18 100.585 614.627 100.119 615C99.6519 615.373 99.1119 615.66 98.4986 615.86C97.8853 616.06 97.2319 616.16 96.5386 616.16C95.8319 616.16 95.1653 616.053 94.5386 615.84C93.9253 615.613 93.3919 615.307 92.9386 614.92C92.4853 614.533 92.1253 614.073 91.8586 613.54C91.6053 613.007 91.4786 612.427 91.4786 611.8C91.4786 611.387 91.5519 611 91.6986 610.64C91.8453 610.28 92.0319 609.96 92.2586 609.68C92.4986 609.387 92.7653 609.133 93.0586 608.92C93.3519 608.707 93.6453 608.533 93.9386 608.4C93.3919 608.16 92.9253 607.793 92.5386 607.3C92.1519 606.807 91.9586 606.247 91.9586 605.62C91.9586 605.007 92.0986 604.467 92.3786 604C92.6586 603.52 93.0186 603.12 93.4586 602.8C93.8986 602.467 94.3919 602.22 94.9386 602.06C95.4853 601.887 96.0253 601.8 96.5586 601.8C97.0919 601.8 97.6319 601.887 98.1786 602.06C98.7386 602.22 99.2386 602.46 99.6786 602.78C100.132 603.1 100.499 603.5 100.779 603.98C101.059 604.447 101.199 604.987 101.199 605.6C101.199 606.227 100.999 606.793 100.599 607.3C100.212 607.793 99.7386 608.16 99.1786 608.4C99.4986 608.547 99.8053 608.733 100.099 608.96C100.405 609.173 100.672 609.433 100.899 609.74C101.125 610.033 101.305 610.36 101.439 610.72C101.572 611.08 101.639 611.473 101.639 611.9ZM99.4186 611.76C99.4186 611.373 99.3319 611.033 99.1586 610.74C98.9986 610.433 98.7786 610.173 98.4986 609.96C98.2319 609.747 97.9253 609.587 97.5786 609.48C97.2453 609.373 96.9053 609.32 96.5586 609.32C96.1986 609.32 95.8453 609.38 95.4986 609.5C95.1653 609.607 94.8653 609.767 94.5986 609.98C94.3453 610.193 94.1386 610.453 93.9786 610.76C93.8186 611.053 93.7386 611.387 93.7386 611.76C93.7386 612.133 93.8186 612.473 93.9786 612.78C94.1519 613.073 94.3719 613.327 94.6386 613.54C94.9053 613.74 95.2053 613.9 95.5386 614.02C95.8853 614.127 96.2319 614.18 96.5786 614.18C96.9386 614.18 97.2853 614.12 97.6186 614C97.9653 613.88 98.2719 613.713 98.5386 613.5C98.8053 613.287 99.0186 613.033 99.1786 612.74C99.3386 612.447 99.4186 612.12 99.4186 611.76ZM94.1786 605.7C94.1786 606.02 94.2519 606.3 94.3986 606.54C94.5453 606.78 94.7319 606.98 94.9586 607.14C95.1853 607.3 95.4386 607.427 95.7186 607.52C95.9986 607.6 96.2786 607.64 96.5586 607.64C96.8386 607.64 97.1186 607.6 97.3986 607.52C97.6919 607.427 97.9519 607.3 98.1786 607.14C98.4053 606.967 98.5919 606.76 98.7386 606.52C98.8853 606.267 98.9586 605.98 98.9586 605.66C98.9586 605.367 98.8919 605.107 98.7586 604.88C98.6253 604.64 98.4453 604.44 98.2186 604.28C98.0053 604.107 97.7519 603.98 97.4586 603.9C97.1786 603.807 96.8786 603.76 96.5586 603.76C96.2386 603.76 95.9319 603.807 95.6386 603.9C95.3586 603.993 95.1053 604.127 94.8786 604.3C94.6653 604.46 94.4919 604.66 94.3586 604.9C94.2386 605.14 94.1786 605.407 94.1786 605.7ZM113.65 611.9C113.65 612.54 113.51 613.127 113.23 613.66C112.964 614.18 112.597 614.627 112.13 615C111.664 615.373 111.124 615.66 110.51 615.86C109.897 616.06 109.244 616.16 108.55 616.16C107.844 616.16 107.177 616.053 106.55 615.84C105.937 615.613 105.404 615.307 104.95 614.92C104.497 614.533 104.137 614.073 103.87 613.54C103.617 613.007 103.49 612.427 103.49 611.8C103.49 611.387 103.564 611 103.71 610.64C103.857 610.28 104.044 609.96 104.27 609.68C104.51 609.387 104.777 609.133 105.07 608.92C105.364 608.707 105.657 608.533 105.95 608.4C105.404 608.16 104.937 607.793 104.55 607.3C104.164 606.807 103.97 606.247 103.97 605.62C103.97 605.007 104.11 604.467 104.39 604C104.67 603.52 105.03 603.12 105.47 602.8C105.91 602.467 106.404 602.22 106.95 602.06C107.497 601.887 108.037 601.8 108.57 601.8C109.104 601.8 109.644 601.887 110.19 602.06C110.75 602.22 111.25 602.46 111.69 602.78C112.144 603.1 112.51 603.5 112.79 603.98C113.07 604.447 113.21 604.987 113.21 605.6C113.21 606.227 113.01 606.793 112.61 607.3C112.224 607.793 111.75 608.16 111.19 608.4C111.51 608.547 111.817 608.733 112.11 608.96C112.417 609.173 112.684 609.433 112.91 609.74C113.137 610.033 113.317 610.36 113.45 610.72C113.584 611.08 113.65 611.473 113.65 611.9ZM111.43 611.76C111.43 611.373 111.344 611.033 111.17 610.74C111.01 610.433 110.79 610.173 110.51 609.96C110.244 609.747 109.937 609.587 109.59 609.48C109.257 609.373 108.917 609.32 108.57 609.32C108.21 609.32 107.857 609.38 107.51 609.5C107.177 609.607 106.877 609.767 106.61 609.98C106.357 610.193 106.15 610.453 105.99 610.76C105.83 611.053 105.75 611.387 105.75 611.76C105.75 612.133 105.83 612.473 105.99 612.78C106.164 613.073 106.384 613.327 106.65 613.54C106.917 613.74 107.217 613.9 107.55 614.02C107.897 614.127 108.244 614.18 108.59 614.18C108.95 614.18 109.297 614.12 109.63 614C109.977 613.88 110.284 613.713 110.55 613.5C110.817 613.287 111.03 613.033 111.19 612.74C111.35 612.447 111.43 612.12 111.43 611.76ZM106.19 605.7C106.19 606.02 106.264 606.3 106.41 606.54C106.557 606.78 106.744 606.98 106.97 607.14C107.197 607.3 107.45 607.427 107.73 607.52C108.01 607.6 108.29 607.64 108.57 607.64C108.85 607.64 109.13 607.6 109.41 607.52C109.704 607.427 109.964 607.3 110.19 607.14C110.417 606.967 110.604 606.76 110.75 606.52C110.897 606.267 110.97 605.98 110.97 605.66C110.97 605.367 110.904 605.107 110.77 604.88C110.637 604.64 110.457 604.44 110.23 604.28C110.017 604.107 109.764 603.98 109.47 603.9C109.19 603.807 108.89 603.76 108.57 603.76C108.25 603.76 107.944 603.807 107.65 603.9C107.37 603.993 107.117 604.127 106.89 604.3C106.677 604.46 106.504 604.66 106.37 604.9C106.25 605.14 106.19 605.407 106.19 605.7ZM115.802 616V613.44H117.622V616H115.802ZM119.52 609.5C119.52 608.82 119.653 608.18 119.92 607.58C120.187 606.98 120.547 606.46 121 606.02C121.467 605.567 122.013 605.213 122.64 604.96C123.267 604.707 123.94 604.58 124.66 604.58C125.433 604.58 126.14 604.727 126.78 605.02C127.42 605.3 127.967 605.713 128.42 606.26C128.873 606.793 129.22 607.453 129.46 608.24C129.713 609.013 129.84 609.893 129.84 610.88C129.84 612.24 129.707 613.433 129.44 614.46C129.187 615.473 128.827 616.32 128.36 617C127.893 617.693 127.32 618.213 126.64 618.56C125.973 618.907 125.233 619.08 124.42 619.08C123.513 619.08 122.68 618.873 121.92 618.46C121.173 618.047 120.567 617.46 120.1 616.7L121.4 615.34C121.707 615.9 122.127 616.34 122.66 616.66C123.207 616.993 123.807 617.16 124.46 617.16C125.46 617.16 126.253 616.74 126.84 615.9C127.44 615.047 127.753 613.853 127.78 612.32C127.5 612.92 127.06 613.393 126.46 613.74C125.873 614.087 125.2 614.26 124.44 614.26C123.747 614.26 123.1 614.14 122.5 613.9C121.9 613.647 121.38 613.307 120.94 612.88C120.5 612.453 120.153 611.953 119.9 611.38C119.647 610.793 119.52 610.167 119.52 609.5ZM124.64 606.46C124.227 606.46 123.833 606.54 123.46 606.7C123.1 606.86 122.78 607.08 122.5 607.36C122.233 607.64 122.02 607.967 121.86 608.34C121.7 608.7 121.62 609.087 121.62 609.5C121.62 609.913 121.7 610.3 121.86 610.66C122.02 611.02 122.233 611.34 122.5 611.62C122.78 611.887 123.1 612.1 123.46 612.26C123.833 612.42 124.227 612.5 124.64 612.5C125.053 612.5 125.44 612.42 125.8 612.26C126.173 612.1 126.493 611.887 126.76 611.62C127.04 611.34 127.26 611.02 127.42 610.66C127.58 610.3 127.66 609.913 127.66 609.5C127.66 609.087 127.58 608.7 127.42 608.34C127.26 607.967 127.04 607.64 126.76 607.36C126.493 607.08 126.173 606.86 125.8 606.7C125.44 606.54 125.053 606.46 124.64 606.46ZM134.517 607.54C134.077 607.54 133.664 607.467 133.277 607.32C132.891 607.16 132.551 606.947 132.257 606.68C131.977 606.413 131.751 606.1 131.577 605.74C131.417 605.38 131.337 604.993 131.337 604.58C131.337 604.167 131.417 603.78 131.577 603.42C131.751 603.06 131.977 602.747 132.257 602.48C132.551 602.2 132.891 601.987 133.277 601.84C133.664 601.68 134.077 601.6 134.517 601.6C134.957 601.6 135.371 601.68 135.757 601.84C136.144 601.987 136.477 602.2 136.757 602.48C137.051 602.747 137.277 603.06 137.437 603.42C137.611 603.78 137.697 604.167 137.697 604.58C137.697 604.993 137.611 605.38 137.437 605.74C137.277 606.1 137.051 606.413 136.757 606.68C136.477 606.947 136.144 607.16 135.757 607.32C135.371 607.467 134.957 607.54 134.517 607.54ZM134.517 606.4C134.744 606.4 134.951 606.353 135.137 606.26C135.337 606.153 135.511 606.02 135.657 605.86C135.804 605.687 135.917 605.493 135.997 605.28C136.091 605.053 136.137 604.82 136.137 604.58C136.137 604.327 136.091 604.087 135.997 603.86C135.917 603.633 135.804 603.44 135.657 603.28C135.511 603.107 135.337 602.973 135.137 602.88C134.937 602.787 134.731 602.74 134.517 602.74C134.064 602.74 133.677 602.927 133.357 603.3C133.051 603.66 132.897 604.087 132.897 604.58C132.897 604.833 132.937 605.073 133.017 605.3C133.111 605.513 133.231 605.707 133.377 605.88C133.524 606.04 133.691 606.167 133.877 606.26C134.077 606.353 134.291 606.4 134.517 606.4ZM141.877 616.2C141.437 616.2 141.024 616.127 140.637 615.98C140.251 615.82 139.911 615.607 139.617 615.34C139.337 615.06 139.111 614.74 138.937 614.38C138.777 614.02 138.697 613.633 138.697 613.22C138.697 612.807 138.777 612.42 138.937 612.06C139.111 611.7 139.337 611.387 139.617 611.12C139.911 610.853 140.251 610.647 140.637 610.5C141.024 610.34 141.437 610.26 141.877 610.26C142.317 610.26 142.731 610.34 143.117 610.5C143.504 610.647 143.837 610.853 144.117 611.12C144.411 611.387 144.637 611.7 144.797 612.06C144.971 612.42 145.057 612.807 145.057 613.22C145.057 613.633 144.971 614.02 144.797 614.38C144.637 614.74 144.411 615.06 144.117 615.34C143.837 615.607 143.504 615.82 143.117 615.98C142.731 616.127 142.317 616.2 141.877 616.2ZM141.877 615.06C142.331 615.06 142.711 614.88 143.017 614.52C143.337 614.16 143.497 613.727 143.497 613.22C143.497 612.967 143.451 612.733 143.357 612.52C143.277 612.293 143.157 612.1 142.997 611.94C142.851 611.767 142.677 611.633 142.477 611.54C142.291 611.447 142.091 611.4 141.877 611.4C141.651 611.4 141.437 611.453 141.237 611.56C141.051 611.653 140.884 611.787 140.737 611.96C140.591 612.12 140.471 612.313 140.377 612.54C140.297 612.753 140.257 612.98 140.257 613.22C140.257 613.473 140.297 613.713 140.377 613.94C140.471 614.167 140.591 614.367 140.737 614.54C140.884 614.7 141.051 614.827 141.237 614.92C141.437 615.013 141.651 615.06 141.877 615.06ZM132.237 615.2L137.857 608.54L143.137 601.68L144.177 602.58L138.657 609.16L133.257 616.12L132.237 615.2ZM151.515 616C151.515 615.44 151.562 614.92 151.655 614.44C151.748 613.96 151.915 613.513 152.155 613.1C152.395 612.673 152.722 612.273 153.135 611.9C153.548 611.513 154.082 611.14 154.735 610.78C155.202 610.527 155.642 610.293 156.055 610.08C156.468 609.867 156.828 609.66 157.135 609.46C157.455 609.247 157.708 609.027 157.895 608.8C158.082 608.56 158.175 608.287 158.175 607.98C158.175 607.553 157.988 607.173 157.615 606.84C157.255 606.493 156.728 606.32 156.035 606.32C155.675 606.32 155.342 606.373 155.035 606.48C154.742 606.573 154.468 606.7 154.215 606.86C153.975 607.007 153.762 607.173 153.575 607.36C153.388 607.547 153.222 607.727 153.075 607.9L151.675 606.28C151.808 606.133 152.015 605.953 152.295 605.74C152.588 605.513 152.935 605.3 153.335 605.1C153.748 604.9 154.215 604.733 154.735 604.6C155.255 604.453 155.822 604.38 156.435 604.38C157.075 604.38 157.648 604.467 158.155 604.64C158.675 604.8 159.108 605.027 159.455 605.32C159.815 605.613 160.088 605.967 160.275 606.38C160.462 606.78 160.555 607.213 160.555 607.68C160.555 608.173 160.455 608.613 160.255 609C160.055 609.387 159.808 609.727 159.515 610.02C159.222 610.313 158.902 610.567 158.555 610.78C158.208 610.98 157.888 611.153 157.595 611.3C157.315 611.433 156.995 611.593 156.635 611.78C156.288 611.953 155.948 612.16 155.615 612.4C155.282 612.627 154.982 612.873 154.715 613.14C154.448 613.407 154.262 613.7 154.155 614.02H160.775V616H151.515ZM167.391 609.66C168.058 609.66 168.671 609.773 169.231 610C169.805 610.227 170.298 610.54 170.711 610.94C171.138 611.34 171.465 611.82 171.691 612.38C171.931 612.94 172.051 613.553 172.051 614.22C172.051 614.927 171.918 615.573 171.651 616.16C171.398 616.747 171.038 617.247 170.571 617.66C170.118 618.087 169.578 618.413 168.951 618.64C168.325 618.867 167.651 618.98 166.931 618.98C165.905 618.98 164.985 618.747 164.171 618.28C163.358 617.827 162.738 617.207 162.311 616.42L163.631 615.16C164.005 615.72 164.485 616.173 165.071 616.52C165.658 616.867 166.285 617.04 166.951 617.04C167.778 617.04 168.458 616.787 168.991 616.28C169.525 615.773 169.791 615.1 169.791 614.26C169.791 613.86 169.718 613.5 169.571 613.18C169.438 612.847 169.251 612.567 169.011 612.34C168.771 612.1 168.485 611.913 168.151 611.78C167.831 611.647 167.478 611.58 167.091 611.58C166.585 611.58 166.111 611.693 165.671 611.92C165.231 612.133 164.871 612.453 164.591 612.88H162.651C162.665 612.827 162.691 612.667 162.731 612.4C162.785 612.133 162.851 611.8 162.931 611.4C163.011 611 163.098 610.553 163.191 610.06C163.285 609.567 163.385 609.067 163.491 608.56C163.731 607.373 163.991 606.047 164.271 604.58H171.211V606.6H165.871L165.151 610.48C165.378 610.227 165.678 610.027 166.051 609.88C166.438 609.733 166.885 609.66 167.391 609.66ZM173.673 611.52V609.54H179.653V611.52H173.673ZM186.571 609.66C187.238 609.66 187.851 609.773 188.411 610C188.984 610.227 189.478 610.54 189.891 610.94C190.318 611.34 190.644 611.82 190.871 612.38C191.111 612.94 191.231 613.553 191.231 614.22C191.231 614.927 191.098 615.573 190.831 616.16C190.578 616.747 190.218 617.247 189.751 617.66C189.298 618.087 188.758 618.413 188.131 618.64C187.504 618.867 186.831 618.98 186.111 618.98C185.084 618.98 184.164 618.747 183.351 618.28C182.538 617.827 181.918 617.207 181.491 616.42L182.811 615.16C183.184 615.72 183.664 616.173 184.251 616.52C184.838 616.867 185.464 617.04 186.131 617.04C186.958 617.04 187.638 616.787 188.171 616.28C188.704 615.773 188.971 615.1 188.971 614.26C188.971 613.86 188.898 613.5 188.751 613.18C188.618 612.847 188.431 612.567 188.191 612.34C187.951 612.1 187.664 611.913 187.331 611.78C187.011 611.647 186.658 611.58 186.271 611.58C185.764 611.58 185.291 611.693 184.851 611.92C184.411 612.133 184.051 612.453 183.771 612.88H181.831C181.844 612.827 181.871 612.667 181.911 612.4C181.964 612.133 182.031 611.8 182.111 611.4C182.191 611 182.278 610.553 182.371 610.06C182.464 609.567 182.564 609.067 182.671 608.56C182.911 607.373 183.171 606.047 183.451 604.58H190.391V606.6H185.051L184.331 610.48C184.558 610.227 184.858 610.027 185.231 609.88C185.618 609.733 186.064 609.66 186.571 609.66ZM203.147 610.14C203.147 611.02 203.013 611.833 202.747 612.58C202.493 613.313 202.133 613.953 201.667 614.5C201.213 615.033 200.673 615.453 200.047 615.76C199.433 616.053 198.76 616.2 198.027 616.2C197.293 616.2 196.613 616.053 195.987 615.76C195.36 615.453 194.82 615.033 194.367 614.5C193.913 613.953 193.553 613.313 193.287 612.58C193.033 611.833 192.907 611.02 192.907 610.14C192.907 609.26 193.033 608.453 193.287 607.72C193.553 606.973 193.913 606.333 194.367 605.8C194.82 605.253 195.36 604.827 195.987 604.52C196.613 604.213 197.293 604.06 198.027 604.06C198.76 604.06 199.433 604.213 200.047 604.52C200.673 604.827 201.213 605.253 201.667 605.8C202.133 606.333 202.493 606.973 202.747 607.72C203.013 608.453 203.147 609.26 203.147 610.14ZM200.907 610.14C200.907 609.54 200.833 608.993 200.687 608.5C200.553 608.007 200.353 607.58 200.087 607.22C199.833 606.86 199.527 606.587 199.167 606.4C198.82 606.2 198.44 606.1 198.027 606.1C197.587 606.1 197.187 606.2 196.827 606.4C196.48 606.587 196.173 606.86 195.907 607.22C195.653 607.58 195.453 608.007 195.307 608.5C195.173 608.993 195.107 609.54 195.107 610.14C195.107 610.74 195.173 611.287 195.307 611.78C195.453 612.273 195.653 612.7 195.907 613.06C196.173 613.407 196.48 613.68 196.827 613.88C197.187 614.067 197.587 614.16 198.027 614.16C198.44 614.16 198.82 614.067 199.167 613.88C199.527 613.68 199.833 613.407 200.087 613.06C200.353 612.7 200.553 612.273 200.687 611.78C200.833 611.287 200.907 610.74 200.907 610.14ZM210.227 618.46C210.427 618.5 210.62 618.533 210.807 618.56C211.007 618.587 211.167 618.6 211.287 618.6C211.46 618.6 211.607 618.56 211.727 618.48C211.86 618.413 211.994 618.287 212.127 618.1C212.26 617.913 212.394 617.647 212.527 617.3C212.674 616.967 212.84 616.533 213.027 616L208.727 605.54H210.987L214.227 614.06L217.107 605.54H219.187L214.447 618.42C214.234 619.02 213.86 619.52 213.327 619.92C212.807 620.333 212.134 620.54 211.307 620.54C211.147 620.54 210.98 620.527 210.807 620.5C210.634 620.487 210.44 620.447 210.227 620.38V618.46ZM225.193 616.2C224.379 616.2 223.639 616.06 222.973 615.78C222.306 615.487 221.733 615.093 221.253 614.6C220.786 614.107 220.419 613.533 220.153 612.88C219.899 612.227 219.773 611.533 219.773 610.8C219.773 610.067 219.899 609.373 220.153 608.72C220.419 608.053 220.786 607.473 221.253 606.98C221.733 606.473 222.306 606.08 222.973 605.8C223.639 605.507 224.386 605.36 225.213 605.36C226.026 605.36 226.759 605.507 227.413 605.8C228.079 606.093 228.646 606.487 229.113 606.98C229.579 607.46 229.933 608.027 230.173 608.68C230.426 609.32 230.553 609.993 230.553 610.7C230.553 610.86 230.546 611.013 230.533 611.16C230.519 611.293 230.506 611.407 230.493 611.5H222.113C222.153 611.967 222.259 612.387 222.433 612.76C222.619 613.133 222.853 613.46 223.133 613.74C223.426 614.007 223.753 614.213 224.113 614.36C224.486 614.507 224.873 614.58 225.273 614.58C225.566 614.58 225.853 614.547 226.133 614.48C226.426 614.4 226.693 614.293 226.933 614.16C227.173 614.013 227.386 613.84 227.573 613.64C227.759 613.44 227.906 613.22 228.013 612.98L229.893 613.52C229.533 614.307 228.933 614.953 228.093 615.46C227.266 615.953 226.299 616.2 225.193 616.2ZM228.373 609.98C228.333 609.54 228.219 609.133 228.033 608.76C227.859 608.387 227.633 608.073 227.353 607.82C227.073 607.553 226.746 607.347 226.373 607.2C225.999 607.053 225.606 606.98 225.193 606.98C224.779 606.98 224.386 607.053 224.013 607.2C223.653 607.347 223.333 607.553 223.053 607.82C222.773 608.073 222.546 608.387 222.373 608.76C222.199 609.133 222.093 609.54 222.053 609.98H228.373ZM235.127 616.2C234.621 616.2 234.147 616.12 233.707 615.96C233.281 615.787 232.907 615.553 232.587 615.26C232.281 614.967 232.034 614.62 231.847 614.22C231.674 613.82 231.587 613.387 231.587 612.92C231.587 612.427 231.694 611.98 231.907 611.58C232.121 611.18 232.421 610.833 232.807 610.54C233.207 610.247 233.674 610.02 234.207 609.86C234.754 609.7 235.354 609.62 236.007 609.62C236.501 609.62 236.987 609.667 237.467 609.76C237.947 609.84 238.381 609.953 238.767 610.1V609.38C238.767 608.607 238.547 608.007 238.107 607.58C237.667 607.14 237.034 606.92 236.207 606.92C235.647 606.92 235.094 607.027 234.547 607.24C234.014 607.44 233.461 607.733 232.887 608.12L232.207 606.72C233.554 605.813 234.954 605.36 236.407 605.36C237.847 605.36 238.967 605.727 239.767 606.46C240.567 607.193 240.967 608.247 240.967 609.62V613.4C240.967 613.867 241.161 614.107 241.547 614.12V616C241.334 616.04 241.147 616.067 240.987 616.08C240.841 616.093 240.694 616.1 240.547 616.1C240.121 616.1 239.787 615.993 239.547 615.78C239.321 615.567 239.181 615.293 239.127 614.96L239.067 614.3C238.601 614.913 238.021 615.387 237.327 615.72C236.647 616.04 235.914 616.2 235.127 616.2ZM235.727 614.58C236.261 614.58 236.761 614.487 237.227 614.3C237.707 614.1 238.081 613.827 238.347 613.48C238.627 613.24 238.767 612.987 238.767 612.72V611.34C238.394 611.193 237.994 611.08 237.567 611C237.154 610.92 236.747 610.88 236.347 610.88C235.561 610.88 234.914 611.053 234.407 611.4C233.914 611.733 233.667 612.18 233.667 612.74C233.667 613.26 233.861 613.7 234.247 614.06C234.634 614.407 235.127 614.58 235.727 614.58ZM249.516 607.44C248.663 607.467 247.903 607.667 247.236 608.04C246.583 608.4 246.116 608.92 245.836 609.6V616H243.636V605.54H245.676V607.88C246.036 607.16 246.503 606.587 247.076 606.16C247.663 605.72 248.29 605.48 248.956 605.44C249.09 605.44 249.196 605.44 249.276 605.44C249.37 605.44 249.45 605.447 249.516 605.46V607.44ZM254.917 616.2C254.077 616.2 253.237 616.067 252.397 615.8C251.57 615.52 250.857 615.127 250.257 614.62L251.137 613.22C251.764 613.673 252.384 614.02 252.997 614.26C253.61 614.487 254.237 614.6 254.877 614.6C255.53 614.6 256.044 614.473 256.417 614.22C256.804 613.967 256.997 613.607 256.997 613.14C256.997 612.7 256.784 612.38 256.357 612.18C255.93 611.98 255.264 611.76 254.357 611.52C253.704 611.347 253.144 611.18 252.677 611.02C252.21 610.86 251.83 610.673 251.537 610.46C251.244 610.247 251.03 610 250.897 609.72C250.764 609.44 250.697 609.1 250.697 608.7C250.697 608.167 250.797 607.693 250.997 607.28C251.21 606.867 251.497 606.52 251.857 606.24C252.23 605.947 252.664 605.727 253.157 605.58C253.65 605.433 254.184 605.36 254.757 605.36C255.544 605.36 256.277 605.48 256.957 605.72C257.637 605.96 258.244 606.307 258.777 606.76L257.837 608.08C256.864 607.307 255.83 606.92 254.737 606.92C254.177 606.92 253.704 607.04 253.317 607.28C252.944 607.507 252.757 607.873 252.757 608.38C252.757 608.593 252.797 608.773 252.877 608.92C252.957 609.067 253.084 609.193 253.257 609.3C253.444 609.407 253.677 609.507 253.957 609.6C254.25 609.68 254.61 609.773 255.037 609.88C255.744 610.053 256.35 610.227 256.857 610.4C257.377 610.573 257.804 610.78 258.137 611.02C258.47 611.247 258.717 611.52 258.877 611.84C259.037 612.147 259.117 612.52 259.117 612.96C259.117 613.96 258.737 614.753 257.977 615.34C257.23 615.913 256.21 616.2 254.917 616.2ZM270.68 616.2C269.853 616.2 269.107 616.053 268.44 615.76C267.787 615.467 267.227 615.073 266.76 614.58C266.293 614.087 265.933 613.513 265.68 612.86C265.427 612.193 265.3 611.5 265.3 610.78C265.3 610.06 265.427 609.373 265.68 608.72C265.933 608.053 266.293 607.473 266.76 606.98C267.24 606.487 267.807 606.093 268.46 605.8C269.127 605.507 269.867 605.36 270.68 605.36C271.493 605.36 272.227 605.507 272.88 605.8C273.547 606.093 274.113 606.487 274.58 606.98C275.06 607.473 275.427 608.053 275.68 608.72C275.933 609.373 276.06 610.06 276.06 610.78C276.06 611.5 275.933 612.193 275.68 612.86C275.427 613.513 275.06 614.087 274.58 614.58C274.113 615.073 273.547 615.467 272.88 615.76C272.227 616.053 271.493 616.2 270.68 616.2ZM267.56 610.8C267.56 611.307 267.64 611.773 267.8 612.2C267.96 612.627 268.18 613 268.46 613.32C268.74 613.627 269.067 613.873 269.44 614.06C269.827 614.233 270.24 614.32 270.68 614.32C271.12 614.32 271.527 614.233 271.9 614.06C272.287 613.873 272.62 613.62 272.9 613.3C273.18 612.98 273.4 612.607 273.56 612.18C273.72 611.753 273.8 611.287 273.8 610.78C273.8 610.287 273.72 609.827 273.56 609.4C273.4 608.96 273.18 608.58 272.9 608.26C272.62 607.94 272.287 607.693 271.9 607.52C271.527 607.333 271.12 607.24 270.68 607.24C270.253 607.24 269.847 607.333 269.46 607.52C269.087 607.707 268.76 607.96 268.48 608.28C268.2 608.6 267.973 608.98 267.8 609.42C267.64 609.847 267.56 610.307 267.56 610.8ZM278.031 601.4H280.231V612.98C280.231 613.367 280.331 613.673 280.531 613.9C280.731 614.113 281.011 614.22 281.371 614.22C281.518 614.22 281.685 614.193 281.871 614.14C282.071 614.087 282.258 614.027 282.431 613.96L282.751 615.68C282.431 615.827 282.051 615.94 281.611 616.02C281.171 616.113 280.778 616.16 280.431 616.16C279.671 616.16 279.078 615.953 278.651 615.54C278.238 615.127 278.031 614.54 278.031 613.78V601.4ZM288.287 616.2C287.58 616.2 286.927 616.06 286.327 615.78C285.727 615.487 285.207 615.093 284.767 614.6C284.327 614.107 283.98 613.533 283.727 612.88C283.487 612.213 283.367 611.5 283.367 610.74C283.367 610.007 283.48 609.32 283.707 608.68C283.947 608.027 284.274 607.453 284.687 606.96C285.114 606.467 285.607 606.08 286.167 605.8C286.74 605.507 287.367 605.36 288.047 605.36C288.887 605.36 289.627 605.567 290.267 605.98C290.907 606.38 291.407 606.893 291.767 607.52V601.4H293.967V613.4C293.967 613.653 294.007 613.833 294.087 613.94C294.18 614.047 294.34 614.107 294.567 614.12V616C294.34 616.04 294.154 616.067 294.007 616.08C293.874 616.093 293.76 616.1 293.667 616.1C293.227 616.1 292.867 615.987 292.587 615.76C292.307 615.533 292.154 615.24 292.127 614.88L292.087 614.1C291.7 614.753 291.174 615.267 290.507 615.64C289.84 616.013 289.1 616.2 288.287 616.2ZM288.827 614.32C289.147 614.32 289.467 614.267 289.787 614.16C290.107 614.053 290.4 613.907 290.667 613.72C290.934 613.533 291.16 613.313 291.347 613.06C291.547 612.807 291.687 612.533 291.767 612.24V609.5C291.647 609.167 291.474 608.86 291.247 608.58C291.034 608.3 290.787 608.06 290.507 607.86C290.227 607.66 289.927 607.507 289.607 607.4C289.3 607.293 288.987 607.24 288.667 607.24C288.227 607.24 287.82 607.34 287.447 607.54C287.087 607.74 286.774 608.007 286.507 608.34C286.24 608.673 286.027 609.053 285.867 609.48C285.72 609.907 285.647 610.347 285.647 610.8C285.647 611.28 285.727 611.733 285.887 612.16C286.06 612.587 286.294 612.96 286.587 613.28C286.88 613.6 287.214 613.853 287.587 614.04C287.974 614.227 288.387 614.32 288.827 614.32Z" fill="#296BAD"/>
<path d="M137.489 534.04C137.303 533.853 136.956 533.6 136.449 533.28C135.969 532.96 135.369 532.653 134.649 532.36C133.956 532.04 133.196 531.773 132.369 531.56C131.543 531.347 130.703 531.24 129.849 531.24C128.329 531.24 127.196 531.52 126.449 532.08C125.703 532.64 125.329 533.427 125.329 534.44C125.329 535.027 125.463 535.52 125.729 535.92C126.023 536.293 126.436 536.627 126.969 536.92C127.503 537.213 128.169 537.48 128.969 537.72C129.796 537.96 130.743 538.213 131.809 538.48C133.196 538.853 134.449 539.253 135.569 539.68C136.716 540.107 137.676 540.64 138.449 541.28C139.249 541.92 139.863 542.693 140.289 543.6C140.716 544.48 140.929 545.573 140.929 546.88C140.929 548.4 140.636 549.707 140.049 550.8C139.489 551.867 138.716 552.733 137.729 553.4C136.769 554.067 135.649 554.56 134.369 554.88C133.116 555.173 131.796 555.32 130.409 555.32C128.276 555.32 126.169 555 124.089 554.36C122.009 553.72 120.143 552.813 118.489 551.64L120.929 546.88C121.169 547.12 121.596 547.44 122.209 547.84C122.849 548.213 123.596 548.6 124.449 549C125.303 549.373 126.249 549.693 127.289 549.96C128.329 550.227 129.396 550.36 130.489 550.36C133.529 550.36 135.049 549.387 135.049 547.44C135.049 546.827 134.876 546.307 134.529 545.88C134.183 545.453 133.689 545.08 133.049 544.76C132.409 544.44 131.636 544.147 130.729 543.88C129.823 543.613 128.809 543.32 127.689 543C126.329 542.627 125.143 542.227 124.129 541.8C123.143 541.347 122.316 540.827 121.649 540.24C120.983 539.627 120.476 538.933 120.129 538.16C119.809 537.36 119.649 536.413 119.649 535.32C119.649 533.88 119.916 532.6 120.449 531.48C120.983 530.36 121.716 529.427 122.649 528.68C123.609 527.933 124.716 527.373 125.969 527C127.223 526.6 128.569 526.4 130.009 526.4C132.009 526.4 133.849 526.72 135.529 527.36C137.209 527.973 138.676 528.707 139.929 529.56L137.489 534.04ZM150.981 555.4C148.821 555.4 147.181 554.707 146.061 553.32C144.941 551.933 144.381 549.88 144.381 547.16V534.04H149.741V546C149.741 549.227 150.901 550.84 153.221 550.84C154.261 550.84 155.261 550.533 156.221 549.92C157.207 549.28 158.007 548.32 158.621 547.04V534.04H163.981V548.84C163.981 549.4 164.074 549.8 164.261 550.04C164.474 550.28 164.807 550.413 165.261 550.44V555C164.727 555.107 164.274 555.173 163.901 555.2C163.554 555.227 163.234 555.24 162.941 555.24C161.981 555.24 161.194 555.027 160.581 554.6C159.994 554.147 159.647 553.533 159.541 552.76L159.421 551.08C158.487 552.52 157.287 553.6 155.821 554.32C154.354 555.04 152.741 555.4 150.981 555.4ZM181.787 538.68C180.161 538.707 178.707 539.027 177.427 539.64C176.147 540.227 175.227 541.12 174.667 542.32V555H169.307V534.04H174.227V538.52C174.601 537.8 175.041 537.16 175.547 536.6C176.054 536.013 176.601 535.507 177.187 535.08C177.774 534.653 178.361 534.333 178.947 534.12C179.561 533.88 180.147 533.76 180.707 533.76C181.001 533.76 181.214 533.76 181.347 533.76C181.507 533.76 181.654 533.773 181.787 533.8V538.68ZM190.416 555L182.696 534.04H188.216L193.536 550.64L198.896 534.04H203.936L196.216 555H190.416ZM215.746 555.4C214.066 555.4 212.546 555.12 211.186 554.56C209.826 553.973 208.666 553.187 207.706 552.2C206.746 551.213 205.999 550.067 205.466 548.76C204.959 547.453 204.706 546.08 204.706 544.64C204.706 543.147 204.959 541.747 205.466 540.44C205.973 539.107 206.706 537.947 207.666 536.96C208.626 535.947 209.786 535.147 211.146 534.56C212.533 533.973 214.079 533.68 215.786 533.68C217.493 533.68 219.013 533.973 220.346 534.56C221.706 535.147 222.853 535.933 223.786 536.92C224.746 537.907 225.466 539.053 225.946 540.36C226.453 541.667 226.706 543.027 226.706 544.44C226.706 544.787 226.693 545.12 226.666 545.44C226.666 545.76 226.639 546.027 226.586 546.24H210.386C210.466 547.067 210.666 547.8 210.986 548.44C211.306 549.08 211.719 549.627 212.226 550.08C212.733 550.533 213.306 550.88 213.946 551.12C214.586 551.36 215.253 551.48 215.946 551.48C217.013 551.48 218.013 551.227 218.946 550.72C219.906 550.187 220.559 549.493 220.906 548.64L225.506 549.92C224.733 551.52 223.493 552.84 221.786 553.88C220.106 554.893 218.093 555.4 215.746 555.4ZM221.186 542.76C221.053 541.187 220.466 539.933 219.426 539C218.413 538.04 217.173 537.56 215.706 537.56C214.986 537.56 214.306 537.693 213.666 537.96C213.053 538.2 212.506 538.547 212.026 539C211.546 539.453 211.146 540 210.826 540.64C210.533 541.28 210.359 541.987 210.306 542.76H221.186ZM229.864 559.08C230.318 559.213 230.758 559.307 231.184 559.36C231.611 559.44 231.971 559.48 232.264 559.48C232.611 559.48 232.931 559.413 233.224 559.28C233.518 559.147 233.784 558.907 234.024 558.56C234.264 558.24 234.504 557.787 234.744 557.2C234.984 556.613 235.238 555.88 235.504 555L227.224 534.04H232.744L238.424 550.36L243.464 534.04H248.504L239.704 559.16C239.198 560.627 238.331 561.827 237.104 562.76C235.878 563.693 234.358 564.16 232.544 564.16C232.118 564.16 231.678 564.12 231.224 564.04C230.798 563.987 230.344 563.88 229.864 563.72V559.08ZM258.868 555.4C257.108 555.4 255.388 555.12 253.708 554.56C252.028 554 250.588 553.2 249.388 552.16L251.388 548.8C252.668 549.707 253.908 550.4 255.108 550.88C256.334 551.333 257.548 551.56 258.748 551.56C259.814 551.56 260.654 551.36 261.268 550.96C261.881 550.56 262.188 549.987 262.188 549.24C262.188 548.493 261.828 547.947 261.108 547.6C260.388 547.253 259.214 546.853 257.588 546.4C256.228 546.027 255.068 545.667 254.108 545.32C253.148 544.973 252.374 544.587 251.788 544.16C251.201 543.707 250.774 543.2 250.508 542.64C250.241 542.053 250.108 541.36 250.108 540.56C250.108 539.493 250.308 538.533 250.708 537.68C251.134 536.827 251.721 536.107 252.468 535.52C253.214 534.907 254.081 534.44 255.068 534.12C256.081 533.8 257.174 533.64 258.348 533.64C259.921 533.64 261.388 533.867 262.748 534.32C264.134 534.773 265.401 535.507 266.548 536.52L264.388 539.76C263.321 538.96 262.281 538.373 261.268 538C260.281 537.627 259.294 537.44 258.308 537.44C257.401 537.44 256.641 537.627 256.028 538C255.414 538.373 255.108 538.973 255.108 539.8C255.108 540.173 255.174 540.48 255.308 540.72C255.468 540.96 255.708 541.173 256.028 541.36C256.348 541.547 256.761 541.733 257.268 541.92C257.801 542.08 258.454 542.253 259.228 542.44C260.668 542.813 261.894 543.187 262.908 543.56C263.948 543.933 264.788 544.36 265.428 544.84C266.094 545.32 266.574 545.88 266.868 546.52C267.188 547.133 267.348 547.88 267.348 548.76C267.348 550.813 266.588 552.44 265.068 553.64C263.548 554.813 261.481 555.4 258.868 555.4Z" fill="#296BAD"/>
<path d="M121 434.672C121 395.232 152.247 363.249 190.778 363.249C229.309 363.249 260.556 395.232 260.556 434.672C260.556 474.111 229.309 506.094 190.778 506.094C152.247 506.094 121 474.111 121 434.672Z" fill="#296BAD"/>
<g clip-path="url(#clip0)">
<path d="M228 460.702C228 467.145 224.553 472.342 220.279 472.342H161.721C157.447 472.342 154 467.145 154 460.702V409.298C154 402.855 157.447 397.658 161.721 397.658H220.279C224.553 397.658 228 402.855 228 409.298V460.702Z" fill="#DFF1ED"/>
<path d="M180.428 453.812V432.312C180.428 431.6 180.15 430.916 179.654 430.412C179.159 429.908 178.487 429.625 177.786 429.625H172.5C171.799 429.625 171.127 429.908 170.631 430.412C170.135 430.916 169.857 431.6 169.857 432.312V453.812C169.857 454.525 170.135 455.209 170.631 455.713C171.127 456.217 171.799 456.5 172.5 456.5H177.786C178.487 456.5 179.159 456.217 179.654 455.713C180.15 455.209 180.428 454.525 180.428 453.812ZM201.571 443.062V453.812C201.571 454.525 201.85 455.209 202.345 455.713C202.841 456.217 203.513 456.5 204.214 456.5H209.5C210.201 456.5 210.873 456.217 211.369 455.713C211.864 455.209 212.143 454.525 212.143 453.812V443.062C212.143 442.35 211.864 441.666 211.369 441.162C210.873 440.658 210.201 440.375 209.5 440.375H204.214C203.513 440.375 202.841 440.658 202.345 441.162C201.85 441.666 201.571 442.35 201.571 443.062ZM185.714 416.188V453.812C185.714 454.525 185.993 455.209 186.488 455.713C186.984 456.217 187.656 456.5 188.357 456.5H193.643C194.344 456.5 195.016 456.217 195.512 455.713C196.007 455.209 196.286 454.525 196.286 453.812V416.188C196.286 415.475 196.007 414.791 195.512 414.287C195.016 413.783 194.344 413.5 193.643 413.5H188.357C187.656 413.5 186.984 413.783 186.488 414.287C185.993 414.791 185.714 415.475 185.714 416.188Z" fill="#B7CAC4"/>
</g>
<path d="M57.667 201.32C58.9737 201.32 60.067 201.053 60.947 200.52C61.8537 199.987 62.5737 199.293 63.107 198.44C63.667 197.587 64.0537 196.613 64.267 195.52C64.507 194.4 64.627 193.253 64.627 192.08V177.6H70.107V192.08C70.107 194.027 69.867 195.853 69.387 197.56C68.9337 199.267 68.2004 200.76 67.187 202.04C66.2004 203.32 64.9204 204.333 63.347 205.08C61.7737 205.827 59.8937 206.2 57.707 206.2C55.4404 206.2 53.507 205.813 51.907 205.04C50.3337 204.24 49.0537 203.2 48.067 201.92C47.0804 200.613 46.3604 199.107 45.907 197.4C45.4804 195.693 45.267 193.92 45.267 192.08V177.6H50.787V192.08C50.787 193.28 50.8937 194.44 51.107 195.56C51.347 196.653 51.7337 197.627 52.267 198.48C52.827 199.333 53.547 200.027 54.427 200.56C55.307 201.067 56.387 201.32 57.667 201.32ZM82.5983 206.4C80.8383 206.4 79.1183 206.12 77.4383 205.56C75.7583 205 74.3183 204.2 73.1183 203.16L75.1183 199.8C76.3983 200.707 77.6383 201.4 78.8383 201.88C80.0649 202.333 81.2783 202.56 82.4783 202.56C83.5449 202.56 84.3849 202.36 84.9983 201.96C85.6116 201.56 85.9183 200.987 85.9183 200.24C85.9183 199.493 85.5583 198.947 84.8383 198.6C84.1183 198.253 82.9449 197.853 81.3183 197.4C79.9583 197.027 78.7983 196.667 77.8383 196.32C76.8783 195.973 76.1049 195.587 75.5183 195.16C74.9316 194.707 74.5049 194.2 74.2383 193.64C73.9716 193.053 73.8383 192.36 73.8383 191.56C73.8383 190.493 74.0383 189.533 74.4383 188.68C74.8649 187.827 75.4516 187.107 76.1983 186.52C76.9449 185.907 77.8116 185.44 78.7983 185.12C79.8116 184.8 80.9049 184.64 82.0783 184.64C83.6516 184.64 85.1183 184.867 86.4783 185.32C87.8649 185.773 89.1316 186.507 90.2783 187.52L88.1183 190.76C87.0516 189.96 86.0116 189.373 84.9983 189C84.0116 188.627 83.0249 188.44 82.0383 188.44C81.1316 188.44 80.3716 188.627 79.7583 189C79.1449 189.373 78.8383 189.973 78.8383 190.8C78.8383 191.173 78.9049 191.48 79.0383 191.72C79.1983 191.96 79.4383 192.173 79.7583 192.36C80.0783 192.547 80.4916 192.733 80.9983 192.92C81.5316 193.08 82.1849 193.253 82.9583 193.44C84.3983 193.813 85.6249 194.187 86.6383 194.56C87.6783 194.933 88.5183 195.36 89.1583 195.84C89.8249 196.32 90.3049 196.88 90.5983 197.52C90.9183 198.133 91.0783 198.88 91.0783 199.76C91.0783 201.813 90.3183 203.44 88.7983 204.64C87.2783 205.813 85.2116 206.4 82.5983 206.4ZM104.281 206.4C102.601 206.4 101.081 206.12 99.7211 205.56C98.3611 204.973 97.2011 204.187 96.2411 203.2C95.2811 202.213 94.5344 201.067 94.0011 199.76C93.4944 198.453 93.2411 197.08 93.2411 195.64C93.2411 194.147 93.4944 192.747 94.0011 191.44C94.5078 190.107 95.2411 188.947 96.2011 187.96C97.1611 186.947 98.3211 186.147 99.6811 185.56C101.068 184.973 102.614 184.68 104.321 184.68C106.028 184.68 107.548 184.973 108.881 185.56C110.241 186.147 111.388 186.933 112.321 187.92C113.281 188.907 114.001 190.053 114.481 191.36C114.988 192.667 115.241 194.027 115.241 195.44C115.241 195.787 115.228 196.12 115.201 196.44C115.201 196.76 115.174 197.027 115.121 197.24H98.9211C99.0011 198.067 99.2011 198.8 99.5211 199.44C99.8411 200.08 100.254 200.627 100.761 201.08C101.268 201.533 101.841 201.88 102.481 202.12C103.121 202.36 103.788 202.48 104.481 202.48C105.548 202.48 106.548 202.227 107.481 201.72C108.441 201.187 109.094 200.493 109.441 199.64L114.041 200.92C113.268 202.52 112.028 203.84 110.321 204.88C108.641 205.893 106.628 206.4 104.281 206.4ZM109.721 193.76C109.588 192.187 109.001 190.933 107.961 190C106.948 189.04 105.708 188.56 104.241 188.56C103.521 188.56 102.841 188.693 102.201 188.96C101.588 189.2 101.041 189.547 100.561 190C100.081 190.453 99.6811 191 99.3611 191.64C99.0678 192.28 98.8944 192.987 98.8411 193.76H109.721ZM130.986 189.68C129.36 189.707 127.906 190.027 126.626 190.64C125.346 191.227 124.426 192.12 123.866 193.32V206H118.506V185.04H123.426V189.52C123.8 188.8 124.24 188.16 124.746 187.6C125.253 187.013 125.8 186.507 126.386 186.08C126.973 185.653 127.56 185.333 128.146 185.12C128.76 184.88 129.346 184.76 129.906 184.76C130.2 184.76 130.413 184.76 130.546 184.76C130.706 184.76 130.853 184.773 130.986 184.8V189.68ZM143.128 206V177.6H148.648V206H143.128ZM173.533 206H168.173V194.24C168.173 192.56 167.88 191.333 167.293 190.56C166.707 189.787 165.893 189.4 164.853 189.4C164.32 189.4 163.773 189.507 163.213 189.72C162.653 189.933 162.12 190.24 161.613 190.64C161.133 191.013 160.693 191.467 160.293 192C159.893 192.533 159.6 193.12 159.413 193.76V206H154.053V185.04H158.893V188.92C159.667 187.587 160.787 186.547 162.253 185.8C163.72 185.053 165.373 184.68 167.213 184.68C168.52 184.68 169.587 184.92 170.413 185.4C171.24 185.88 171.88 186.507 172.333 187.28C172.787 188.053 173.093 188.933 173.253 189.92C173.44 190.907 173.533 191.907 173.533 192.92V206ZM190.559 204.92C189.839 205.24 188.959 205.56 187.919 205.88C186.879 206.2 185.785 206.36 184.639 206.36C183.892 206.36 183.185 206.267 182.519 206.08C181.879 205.893 181.305 205.6 180.799 205.2C180.319 204.773 179.932 204.24 179.639 203.6C179.345 202.933 179.199 202.133 179.199 201.2V189.16H176.439V185.04H179.199V178.24H184.559V185.04H188.959V189.16H184.559V199.4C184.559 200.147 184.745 200.68 185.119 201C185.519 201.293 185.999 201.44 186.559 201.44C187.119 201.44 187.665 201.347 188.199 201.16C188.732 200.973 189.159 200.813 189.479 200.68L190.559 204.92ZM202.562 206.4C200.882 206.4 199.362 206.12 198.002 205.56C196.642 204.973 195.482 204.187 194.522 203.2C193.562 202.213 192.816 201.067 192.282 199.76C191.776 198.453 191.522 197.08 191.522 195.64C191.522 194.147 191.776 192.747 192.282 191.44C192.789 190.107 193.522 188.947 194.482 187.96C195.442 186.947 196.602 186.147 197.962 185.56C199.349 184.973 200.896 184.68 202.602 184.68C204.309 184.68 205.829 184.973 207.162 185.56C208.522 186.147 209.669 186.933 210.602 187.92C211.562 188.907 212.282 190.053 212.762 191.36C213.269 192.667 213.522 194.027 213.522 195.44C213.522 195.787 213.509 196.12 213.482 196.44C213.482 196.76 213.456 197.027 213.402 197.24H197.202C197.282 198.067 197.482 198.8 197.802 199.44C198.122 200.08 198.536 200.627 199.042 201.08C199.549 201.533 200.122 201.88 200.762 202.12C201.402 202.36 202.069 202.48 202.762 202.48C203.829 202.48 204.829 202.227 205.762 201.72C206.722 201.187 207.376 200.493 207.722 199.64L212.322 200.92C211.549 202.52 210.309 203.84 208.602 204.88C206.922 205.893 204.909 206.4 202.562 206.4ZM208.002 193.76C207.869 192.187 207.282 190.933 206.242 190C205.229 189.04 203.989 188.56 202.522 188.56C201.802 188.56 201.122 188.693 200.482 188.96C199.869 189.2 199.322 189.547 198.842 190C198.362 190.453 197.962 191 197.642 191.64C197.349 192.28 197.176 192.987 197.122 193.76H208.002ZM229.268 189.68C227.641 189.707 226.188 190.027 224.908 190.64C223.628 191.227 222.708 192.12 222.148 193.32V206H216.788V185.04H221.708V189.52C222.081 188.8 222.521 188.16 223.028 187.6C223.534 187.013 224.081 186.507 224.668 186.08C225.254 185.653 225.841 185.333 226.428 185.12C227.041 184.88 227.628 184.76 228.188 184.76C228.481 184.76 228.694 184.76 228.828 184.76C228.988 184.76 229.134 184.773 229.268 184.8V189.68ZM237.896 206L230.176 185.04H235.696L241.016 201.64L246.376 185.04H251.416L243.696 206H237.896ZM254.21 206V185.04H259.57V206H254.21ZM254.21 182.12V176.8H259.57V182.12H254.21ZM274.125 206.4C272.445 206.4 270.925 206.12 269.565 205.56C268.205 204.973 267.045 204.187 266.085 203.2C265.125 202.213 264.378 201.067 263.845 199.76C263.338 198.453 263.085 197.08 263.085 195.64C263.085 194.147 263.338 192.747 263.845 191.44C264.352 190.107 265.085 188.947 266.045 187.96C267.005 186.947 268.165 186.147 269.525 185.56C270.912 184.973 272.458 184.68 274.165 184.68C275.872 184.68 277.392 184.973 278.725 185.56C280.085 186.147 281.232 186.933 282.165 187.92C283.125 188.907 283.845 190.053 284.325 191.36C284.832 192.667 285.085 194.027 285.085 195.44C285.085 195.787 285.072 196.12 285.045 196.44C285.045 196.76 285.018 197.027 284.965 197.24H268.765C268.845 198.067 269.045 198.8 269.365 199.44C269.685 200.08 270.098 200.627 270.605 201.08C271.112 201.533 271.685 201.88 272.325 202.12C272.965 202.36 273.632 202.48 274.325 202.48C275.392 202.48 276.392 202.227 277.325 201.72C278.285 201.187 278.938 200.493 279.285 199.64L283.885 200.92C283.112 202.52 281.872 203.84 280.165 204.88C278.485 205.893 276.472 206.4 274.125 206.4ZM279.565 193.76C279.432 192.187 278.845 190.933 277.805 190C276.792 189.04 275.552 188.56 274.085 188.56C273.365 188.56 272.685 188.693 272.045 188.96C271.432 189.2 270.885 189.547 270.405 190C269.925 190.453 269.525 191 269.205 191.64C268.912 192.28 268.738 192.987 268.685 193.76H279.565ZM313.803 185.04H318.883L310.123 206H305.723L302.123 196.8L298.563 206H294.163L285.443 185.04H290.483L296.723 200.96L299.283 194.16L295.603 185.08H299.923L302.123 191.52L304.363 185.08H308.683L305.043 194.16L307.563 200.96L313.803 185.04ZM328.77 206.4C327.01 206.4 325.29 206.12 323.61 205.56C321.93 205 320.49 204.2 319.29 203.16L321.29 199.8C322.57 200.707 323.81 201.4 325.01 201.88C326.237 202.333 327.45 202.56 328.65 202.56C329.717 202.56 330.557 202.36 331.17 201.96C331.783 201.56 332.09 200.987 332.09 200.24C332.09 199.493 331.73 198.947 331.01 198.6C330.29 198.253 329.117 197.853 327.49 197.4C326.13 197.027 324.97 196.667 324.01 196.32C323.05 195.973 322.277 195.587 321.69 195.16C321.103 194.707 320.677 194.2 320.41 193.64C320.143 193.053 320.01 192.36 320.01 191.56C320.01 190.493 320.21 189.533 320.61 188.68C321.037 187.827 321.623 187.107 322.37 186.52C323.117 185.907 323.983 185.44 324.97 185.12C325.983 184.8 327.077 184.64 328.25 184.64C329.823 184.64 331.29 184.867 332.65 185.32C334.037 185.773 335.303 186.507 336.45 187.52L334.29 190.76C333.223 189.96 332.183 189.373 331.17 189C330.183 188.627 329.197 188.44 328.21 188.44C327.303 188.44 326.543 188.627 325.93 189C325.317 189.373 325.01 189.973 325.01 190.8C325.01 191.173 325.077 191.48 325.21 191.72C325.37 191.96 325.61 192.173 325.93 192.36C326.25 192.547 326.663 192.733 327.17 192.92C327.703 193.08 328.357 193.253 329.13 193.44C330.57 193.813 331.797 194.187 332.81 194.56C333.85 194.933 334.69 195.36 335.33 195.84C335.997 196.32 336.477 196.88 336.77 197.52C337.09 198.133 337.25 198.88 337.25 199.76C337.25 201.813 336.49 203.44 334.97 204.64C333.45 205.813 331.383 206.4 328.77 206.4Z" fill="#296BAD"/>
<path d="M140.452 233.66C141.119 233.66 141.732 233.773 142.292 234C142.866 234.227 143.359 234.54 143.772 234.94C144.199 235.34 144.526 235.82 144.752 236.38C144.992 236.94 145.112 237.553 145.112 238.22C145.112 238.927 144.979 239.573 144.712 240.16C144.459 240.747 144.099 241.247 143.632 241.66C143.179 242.087 142.639 242.413 142.012 242.64C141.386 242.867 140.712 242.98 139.992 242.98C138.966 242.98 138.046 242.747 137.232 242.28C136.419 241.827 135.799 241.207 135.372 240.42L136.692 239.16C137.066 239.72 137.546 240.173 138.132 240.52C138.719 240.867 139.346 241.04 140.012 241.04C140.839 241.04 141.519 240.787 142.052 240.28C142.586 239.773 142.852 239.1 142.852 238.26C142.852 237.86 142.779 237.5 142.632 237.18C142.499 236.847 142.312 236.567 142.072 236.34C141.832 236.1 141.546 235.913 141.212 235.78C140.892 235.647 140.539 235.58 140.152 235.58C139.646 235.58 139.172 235.693 138.732 235.92C138.292 236.133 137.932 236.453 137.652 236.88H135.712C135.726 236.827 135.752 236.667 135.792 236.4C135.846 236.133 135.912 235.8 135.992 235.4C136.072 235 136.159 234.553 136.252 234.06C136.346 233.567 136.446 233.067 136.552 232.56C136.792 231.373 137.052 230.047 137.332 228.58H144.272V230.6H138.932L138.212 234.48C138.439 234.227 138.739 234.027 139.112 233.88C139.499 233.733 139.946 233.66 140.452 233.66ZM152.029 240V229.54H154.229V240H152.029ZM152.029 227.82V225.4H154.229V227.82H152.029ZM166.253 240H164.053V234.14C164.053 233.153 163.893 232.44 163.573 232C163.266 231.547 162.806 231.32 162.193 231.32C161.873 231.32 161.553 231.38 161.233 231.5C160.913 231.62 160.613 231.793 160.333 232.02C160.053 232.233 159.8 232.493 159.573 232.8C159.36 233.093 159.193 233.42 159.073 233.78V240H156.873V229.54H158.873V231.64C159.273 230.933 159.853 230.38 160.613 229.98C161.373 229.567 162.213 229.36 163.133 229.36C163.76 229.36 164.273 229.473 164.673 229.7C165.073 229.927 165.386 230.24 165.613 230.64C165.853 231.027 166.02 231.48 166.113 232C166.206 232.507 166.253 233.047 166.253 233.62V240ZM174.529 239.46C174.249 239.593 173.862 239.747 173.369 239.92C172.876 240.08 172.349 240.16 171.789 240.16C171.442 240.16 171.116 240.113 170.809 240.02C170.502 239.927 170.229 239.787 169.989 239.6C169.762 239.413 169.582 239.173 169.449 238.88C169.316 238.573 169.249 238.207 169.249 237.78V231.24H167.869V229.54H169.249V226.1H171.449V229.54H173.729V231.24H171.449V237.08C171.476 237.453 171.589 237.727 171.789 237.9C172.002 238.06 172.262 238.14 172.569 238.14C172.876 238.14 173.169 238.087 173.449 237.98C173.729 237.873 173.936 237.787 174.069 237.72L174.529 239.46ZM180.539 240.2C179.725 240.2 178.985 240.06 178.319 239.78C177.652 239.487 177.079 239.093 176.599 238.6C176.132 238.107 175.765 237.533 175.499 236.88C175.245 236.227 175.119 235.533 175.119 234.8C175.119 234.067 175.245 233.373 175.499 232.72C175.765 232.053 176.132 231.473 176.599 230.98C177.079 230.473 177.652 230.08 178.319 229.8C178.985 229.507 179.732 229.36 180.559 229.36C181.372 229.36 182.105 229.507 182.759 229.8C183.425 230.093 183.992 230.487 184.459 230.98C184.925 231.46 185.279 232.027 185.519 232.68C185.772 233.32 185.899 233.993 185.899 234.7C185.899 234.86 185.892 235.013 185.879 235.16C185.865 235.293 185.852 235.407 185.839 235.5H177.459C177.499 235.967 177.605 236.387 177.779 236.76C177.965 237.133 178.199 237.46 178.479 237.74C178.772 238.007 179.099 238.213 179.459 238.36C179.832 238.507 180.219 238.58 180.619 238.58C180.912 238.58 181.199 238.547 181.479 238.48C181.772 238.4 182.039 238.293 182.279 238.16C182.519 238.013 182.732 237.84 182.919 237.64C183.105 237.44 183.252 237.22 183.359 236.98L185.239 237.52C184.879 238.307 184.279 238.953 183.439 239.46C182.612 239.953 181.645 240.2 180.539 240.2ZM183.719 233.98C183.679 233.54 183.565 233.133 183.379 232.76C183.205 232.387 182.979 232.073 182.699 231.82C182.419 231.553 182.092 231.347 181.719 231.2C181.345 231.053 180.952 230.98 180.539 230.98C180.125 230.98 179.732 231.053 179.359 231.2C178.999 231.347 178.679 231.553 178.399 231.82C178.119 232.073 177.892 232.387 177.719 232.76C177.545 233.133 177.439 233.54 177.399 233.98H183.719ZM193.573 231.44C192.72 231.467 191.96 231.667 191.293 232.04C190.64 232.4 190.173 232.92 189.893 233.6V240H187.693V229.54H189.733V231.88C190.093 231.16 190.56 230.587 191.133 230.16C191.72 229.72 192.347 229.48 193.013 229.44C193.147 229.44 193.253 229.44 193.333 229.44C193.427 229.44 193.507 229.447 193.573 229.46V231.44ZM198.114 240L194.114 229.54H196.374L199.374 238.14L202.394 229.54H204.474L200.474 240H198.114ZM206.033 240V229.54H208.233V240H206.033ZM206.033 227.82V225.4H208.233V227.82H206.033ZM215.617 240.2C214.804 240.2 214.064 240.06 213.397 239.78C212.73 239.487 212.157 239.093 211.677 238.6C211.21 238.107 210.844 237.533 210.577 236.88C210.324 236.227 210.197 235.533 210.197 234.8C210.197 234.067 210.324 233.373 210.577 232.72C210.844 232.053 211.21 231.473 211.677 230.98C212.157 230.473 212.73 230.08 213.397 229.8C214.064 229.507 214.81 229.36 215.637 229.36C216.45 229.36 217.184 229.507 217.837 229.8C218.504 230.093 219.07 230.487 219.537 230.98C220.004 231.46 220.357 232.027 220.597 232.68C220.85 233.32 220.977 233.993 220.977 234.7C220.977 234.86 220.97 235.013 220.957 235.16C220.944 235.293 220.93 235.407 220.917 235.5H212.537C212.577 235.967 212.684 236.387 212.857 236.76C213.044 237.133 213.277 237.46 213.557 237.74C213.85 238.007 214.177 238.213 214.537 238.36C214.91 238.507 215.297 238.58 215.697 238.58C215.99 238.58 216.277 238.547 216.557 238.48C216.85 238.4 217.117 238.293 217.357 238.16C217.597 238.013 217.81 237.84 217.997 237.64C218.184 237.44 218.33 237.22 218.437 236.98L220.317 237.52C219.957 238.307 219.357 238.953 218.517 239.46C217.69 239.953 216.724 240.2 215.617 240.2ZM218.797 233.98C218.757 233.54 218.644 233.133 218.457 232.76C218.284 232.387 218.057 232.073 217.777 231.82C217.497 231.553 217.17 231.347 216.797 231.2C216.424 231.053 216.03 230.98 215.617 230.98C215.204 230.98 214.81 231.053 214.437 231.2C214.077 231.347 213.757 231.553 213.477 231.82C213.197 232.073 212.97 232.387 212.797 232.76C212.624 233.133 212.517 233.54 212.477 233.98H218.797ZM235.538 229.54H237.638L233.238 240H231.418L229.478 235.14L227.538 240H225.718L221.298 229.54H223.398L226.778 237.88L228.298 234L226.478 229.56H228.278L229.478 232.84L230.658 229.56H232.458L230.658 234L232.178 237.88L235.538 229.54ZM242.646 240.2C241.806 240.2 240.966 240.067 240.126 239.8C239.299 239.52 238.586 239.127 237.986 238.62L238.866 237.22C239.492 237.673 240.112 238.02 240.726 238.26C241.339 238.487 241.966 238.6 242.606 238.6C243.259 238.6 243.772 238.473 244.146 238.22C244.532 237.967 244.726 237.607 244.726 237.14C244.726 236.7 244.512 236.38 244.086 236.18C243.659 235.98 242.992 235.76 242.086 235.52C241.432 235.347 240.872 235.18 240.406 235.02C239.939 234.86 239.559 234.673 239.266 234.46C238.972 234.247 238.759 234 238.626 233.72C238.492 233.44 238.426 233.1 238.426 232.7C238.426 232.167 238.526 231.693 238.726 231.28C238.939 230.867 239.226 230.52 239.586 230.24C239.959 229.947 240.392 229.727 240.886 229.58C241.379 229.433 241.912 229.36 242.486 229.36C243.272 229.36 244.006 229.48 244.686 229.72C245.366 229.96 245.972 230.307 246.506 230.76L245.566 232.08C244.592 231.307 243.559 230.92 242.466 230.92C241.906 230.92 241.432 231.04 241.046 231.28C240.672 231.507 240.486 231.873 240.486 232.38C240.486 232.593 240.526 232.773 240.606 232.92C240.686 233.067 240.812 233.193 240.986 233.3C241.172 233.407 241.406 233.507 241.686 233.6C241.979 233.68 242.339 233.773 242.766 233.88C243.472 234.053 244.079 234.227 244.586 234.4C245.106 234.573 245.532 234.78 245.866 235.02C246.199 235.247 246.446 235.52 246.606 235.84C246.766 236.147 246.846 236.52 246.846 236.96C246.846 237.96 246.466 238.753 245.706 239.34C244.959 239.913 243.939 240.2 242.646 240.2Z" fill="#296BAD"/>
<path d="M121.222 72.0001C121.222 33.4688 152.469 2.22192 191 2.22192C229.531 2.22192 260.778 33.4688 260.778 72.0001C260.778 110.531 229.531 141.778 191 141.778C152.469 141.778 121.222 110.531 121.222 72.0001Z" fill="#296BAD"/>
<path d="M235.072 88.0874C235.072 93.1781 230.966 97.2843 225.875 97.2843H156.125C151.034 97.2843 146.928 93.1781 146.928 88.0874V47.4749C146.928 42.3843 151.034 38.2781 156.125 38.2781H225.875C230.966 38.2781 235.072 42.3843 235.072 47.4749V88.0874Z" fill="#DFF1ED"/>
<path d="M213.781 109.659C213.05 110.391 211.897 110.391 211.166 109.659L202.363 97.2001C201.631 96.4689 201.631 95.3157 202.363 94.5845H222.613C223.344 95.3157 223.344 96.4689 222.613 97.2001L213.781 109.659Z" fill="#DFF1ED"/>
<path d="M221.628 53.8874C221.628 55.7437 220.137 57.2343 218.281 57.2343H163.494C161.637 57.2343 160.147 55.7437 160.147 53.8874C160.147 52.0312 161.637 50.5405 163.494 50.5405H218.309C220.137 50.5687 221.628 52.0593 221.628 53.8874ZM221.628 67.2749C221.628 69.1312 220.137 70.6218 218.281 70.6218H163.494C161.637 70.6218 160.147 69.1312 160.147 67.2749C160.147 65.4187 161.637 63.928 163.494 63.928H218.309C220.137 63.928 221.628 65.4187 221.628 67.2749ZM221.628 80.6343C221.628 82.4905 220.137 83.9812 218.281 83.9812H163.494C161.637 83.9812 160.147 82.4905 160.147 80.6343C160.147 78.778 161.637 77.2874 163.494 77.2874H218.309C220.137 77.2874 221.628 78.778 221.628 80.6343Z" fill="#B7CAC4"/>
<path d="M57.683 262.76C57.683 262.027 57.8096 261.333 58.063 260.68C58.3163 260.027 58.6763 259.453 59.143 258.96C59.623 258.467 60.1963 258.08 60.863 257.8C61.5296 257.507 62.2763 257.36 63.103 257.36C64.183 257.36 65.1096 257.6 65.883 258.08C66.6696 258.547 67.2563 259.173 67.643 259.96L65.503 260.64C65.2496 260.2 64.9096 259.86 64.483 259.62C64.0563 259.367 63.583 259.24 63.063 259.24C62.623 259.24 62.2096 259.327 61.823 259.5C61.4496 259.673 61.123 259.92 60.843 260.24C60.563 260.547 60.343 260.913 60.183 261.34C60.023 261.767 59.943 262.24 59.943 262.76C59.943 263.267 60.023 263.74 60.183 264.18C60.3563 264.607 60.583 264.98 60.863 265.3C61.1563 265.62 61.4896 265.873 61.863 266.06C62.2496 266.233 62.6563 266.32 63.083 266.32C63.3496 266.32 63.6163 266.287 63.883 266.22C64.1496 266.14 64.3896 266.033 64.603 265.9C64.8296 265.767 65.023 265.613 65.183 265.44C65.3563 265.267 65.483 265.08 65.563 264.88L67.723 265.52C67.3763 266.307 66.7963 266.953 65.983 267.46C65.1696 267.953 64.2096 268.2 63.103 268.2C62.2896 268.2 61.5496 268.053 60.883 267.76C60.2163 267.467 59.643 267.073 59.163 266.58C58.6963 266.073 58.3296 265.493 58.063 264.84C57.8096 264.187 57.683 263.493 57.683 262.76ZM78.9148 268H76.7148V262.14C76.7148 261.18 76.5415 260.473 76.1948 260.02C75.8615 259.553 75.3748 259.32 74.7348 259.32C74.4282 259.32 74.1215 259.38 73.8148 259.5C73.5082 259.62 73.2148 259.793 72.9348 260.02C72.6682 260.233 72.4282 260.493 72.2148 260.8C72.0015 261.093 71.8415 261.42 71.7348 261.78V268H69.5348V253.4H71.7348V259.64C72.1348 258.92 72.6748 258.36 73.3548 257.96C74.0482 257.56 74.8015 257.36 75.6148 257.36C76.2682 257.36 76.8015 257.48 77.2148 257.72C77.6415 257.947 77.9815 258.253 78.2348 258.64C78.4882 259.027 78.6615 259.48 78.7548 260C78.8615 260.507 78.9148 261.047 78.9148 261.62V268ZM81.4684 268V257.54H83.6684V268H81.4684ZM81.4684 255.82V253.4H83.6684V255.82H81.4684ZM86.3322 253.4H88.5322V264.98C88.5322 265.367 88.6322 265.673 88.8322 265.9C89.0322 266.113 89.3122 266.22 89.6722 266.22C89.8189 266.22 89.9855 266.193 90.1722 266.14C90.3722 266.087 90.5589 266.027 90.7322 265.96L91.0522 267.68C90.7322 267.827 90.3522 267.94 89.9122 268.02C89.4722 268.113 89.0789 268.16 88.7322 268.16C87.9722 268.16 87.3789 267.953 86.9522 267.54C86.5389 267.127 86.3322 266.54 86.3322 265.78V253.4ZM96.5878 268.2C95.8811 268.2 95.2278 268.06 94.6278 267.78C94.0278 267.487 93.5078 267.093 93.0678 266.6C92.6278 266.107 92.2811 265.533 92.0278 264.88C91.7878 264.213 91.6678 263.5 91.6678 262.74C91.6678 262.007 91.7811 261.32 92.0078 260.68C92.2478 260.027 92.5745 259.453 92.9878 258.96C93.4145 258.467 93.9078 258.08 94.4678 257.8C95.0411 257.507 95.6678 257.36 96.3478 257.36C97.1878 257.36 97.9278 257.567 98.5678 257.98C99.2078 258.38 99.7078 258.893 100.068 259.52V253.4H102.268V265.4C102.268 265.653 102.308 265.833 102.388 265.94C102.481 266.047 102.641 266.107 102.868 266.12V268C102.641 268.04 102.454 268.067 102.308 268.08C102.174 268.093 102.061 268.1 101.968 268.1C101.528 268.1 101.168 267.987 100.888 267.76C100.608 267.533 100.454 267.24 100.428 266.88L100.388 266.1C100.001 266.753 99.4745 267.267 98.8078 267.64C98.1411 268.013 97.4011 268.2 96.5878 268.2ZM97.1278 266.32C97.4478 266.32 97.7678 266.267 98.0878 266.16C98.4078 266.053 98.7011 265.907 98.9678 265.72C99.2345 265.533 99.4611 265.313 99.6478 265.06C99.8478 264.807 99.9878 264.533 100.068 264.24V261.5C99.9478 261.167 99.7745 260.86 99.5478 260.58C99.3345 260.3 99.0878 260.06 98.8078 259.86C98.5278 259.66 98.2278 259.507 97.9078 259.4C97.6011 259.293 97.2878 259.24 96.9678 259.24C96.5278 259.24 96.1211 259.34 95.7478 259.54C95.3878 259.74 95.0745 260.007 94.8078 260.34C94.5411 260.673 94.3278 261.053 94.1678 261.48C94.0211 261.907 93.9478 262.347 93.9478 262.8C93.9478 263.28 94.0278 263.733 94.1878 264.16C94.3611 264.587 94.5945 264.96 94.8878 265.28C95.1811 265.6 95.5145 265.853 95.8878 266.04C96.2745 266.227 96.6878 266.32 97.1278 266.32ZM110.942 259.44C110.089 259.467 109.329 259.667 108.662 260.04C108.009 260.4 107.542 260.92 107.262 261.6V268H105.062V257.54H107.102V259.88C107.462 259.16 107.929 258.587 108.502 258.16C109.089 257.72 109.716 257.48 110.382 257.44C110.516 257.44 110.622 257.44 110.702 257.44C110.796 257.44 110.876 257.447 110.942 257.46V259.44ZM116.755 268.2C115.942 268.2 115.202 268.06 114.535 267.78C113.869 267.487 113.295 267.093 112.815 266.6C112.349 266.107 111.982 265.533 111.715 264.88C111.462 264.227 111.335 263.533 111.335 262.8C111.335 262.067 111.462 261.373 111.715 260.72C111.982 260.053 112.349 259.473 112.815 258.98C113.295 258.473 113.869 258.08 114.535 257.8C115.202 257.507 115.949 257.36 116.775 257.36C117.589 257.36 118.322 257.507 118.975 257.8C119.642 258.093 120.209 258.487 120.675 258.98C121.142 259.46 121.495 260.027 121.735 260.68C121.989 261.32 122.115 261.993 122.115 262.7C122.115 262.86 122.109 263.013 122.095 263.16C122.082 263.293 122.069 263.407 122.055 263.5H113.675C113.715 263.967 113.822 264.387 113.995 264.76C114.182 265.133 114.415 265.46 114.695 265.74C114.989 266.007 115.315 266.213 115.675 266.36C116.049 266.507 116.435 266.58 116.835 266.58C117.129 266.58 117.415 266.547 117.695 266.48C117.989 266.4 118.255 266.293 118.495 266.16C118.735 266.013 118.949 265.84 119.135 265.64C119.322 265.44 119.469 265.22 119.575 264.98L121.455 265.52C121.095 266.307 120.495 266.953 119.655 267.46C118.829 267.953 117.862 268.2 116.755 268.2ZM119.935 261.98C119.895 261.54 119.782 261.133 119.595 260.76C119.422 260.387 119.195 260.073 118.915 259.82C118.635 259.553 118.309 259.347 117.935 259.2C117.562 259.053 117.169 258.98 116.755 258.98C116.342 258.98 115.949 259.053 115.575 259.2C115.215 259.347 114.895 259.553 114.615 259.82C114.335 260.073 114.109 260.387 113.935 260.76C113.762 261.133 113.655 261.54 113.615 261.98H119.935ZM133.29 268H131.09V262.14C131.09 261.153 130.93 260.44 130.61 260C130.303 259.547 129.843 259.32 129.23 259.32C128.91 259.32 128.59 259.38 128.27 259.5C127.95 259.62 127.65 259.793 127.37 260.02C127.09 260.233 126.837 260.493 126.61 260.8C126.397 261.093 126.23 261.42 126.11 261.78V268H123.91V257.54H125.91V259.64C126.31 258.933 126.89 258.38 127.65 257.98C128.41 257.567 129.25 257.36 130.17 257.36C130.797 257.36 131.31 257.473 131.71 257.7C132.11 257.927 132.423 258.24 132.65 258.64C132.89 259.027 133.057 259.48 133.15 260C133.243 260.507 133.29 261.047 133.29 261.62V268ZM139.643 268.2C138.803 268.2 137.963 268.067 137.123 267.8C136.297 267.52 135.583 267.127 134.983 266.62L135.863 265.22C136.49 265.673 137.11 266.02 137.723 266.26C138.337 266.487 138.963 266.6 139.603 266.6C140.257 266.6 140.77 266.473 141.143 266.22C141.53 265.967 141.723 265.607 141.723 265.14C141.723 264.7 141.51 264.38 141.083 264.18C140.657 263.98 139.99 263.76 139.083 263.52C138.43 263.347 137.87 263.18 137.403 263.02C136.937 262.86 136.557 262.673 136.263 262.46C135.97 262.247 135.757 262 135.623 261.72C135.49 261.44 135.423 261.1 135.423 260.7C135.423 260.167 135.523 259.693 135.723 259.28C135.937 258.867 136.223 258.52 136.583 258.24C136.957 257.947 137.39 257.727 137.883 257.58C138.377 257.433 138.91 257.36 139.483 257.36C140.27 257.36 141.003 257.48 141.683 257.72C142.363 257.96 142.97 258.307 143.503 258.76L142.563 260.08C141.59 259.307 140.557 258.92 139.463 258.92C138.903 258.92 138.43 259.04 138.043 259.28C137.67 259.507 137.483 259.873 137.483 260.38C137.483 260.593 137.523 260.773 137.603 260.92C137.683 261.067 137.81 261.193 137.983 261.3C138.17 261.407 138.403 261.507 138.683 261.6C138.977 261.68 139.337 261.773 139.763 261.88C140.47 262.053 141.077 262.227 141.583 262.4C142.103 262.573 142.53 262.78 142.863 263.02C143.197 263.247 143.443 263.52 143.603 263.84C143.763 264.147 143.843 264.52 143.843 264.96C143.843 265.96 143.463 266.753 142.703 267.34C141.957 267.913 140.937 268.2 139.643 268.2ZM145.69 258.18L146.11 255.82H145.41V253.34H147.57V255.84L146.91 258.18H145.69ZM157.12 268.2C156.613 268.2 156.14 268.12 155.7 267.96C155.273 267.787 154.9 267.553 154.58 267.26C154.273 266.967 154.026 266.62 153.84 266.22C153.666 265.82 153.58 265.387 153.58 264.92C153.58 264.427 153.686 263.98 153.9 263.58C154.113 263.18 154.413 262.833 154.8 262.54C155.2 262.247 155.666 262.02 156.2 261.86C156.746 261.7 157.346 261.62 158 261.62C158.493 261.62 158.98 261.667 159.46 261.76C159.94 261.84 160.373 261.953 160.76 262.1V261.38C160.76 260.607 160.54 260.007 160.1 259.58C159.66 259.14 159.026 258.92 158.2 258.92C157.64 258.92 157.086 259.027 156.54 259.24C156.006 259.44 155.453 259.733 154.88 260.12L154.2 258.72C155.546 257.813 156.946 257.36 158.4 257.36C159.84 257.36 160.96 257.727 161.76 258.46C162.56 259.193 162.96 260.247 162.96 261.62V265.4C162.96 265.867 163.153 266.107 163.54 266.12V268C163.326 268.04 163.14 268.067 162.98 268.08C162.833 268.093 162.686 268.1 162.54 268.1C162.113 268.1 161.78 267.993 161.54 267.78C161.313 267.567 161.173 267.293 161.12 266.96L161.06 266.3C160.593 266.913 160.013 267.387 159.32 267.72C158.64 268.04 157.906 268.2 157.12 268.2ZM157.72 266.58C158.253 266.58 158.753 266.487 159.22 266.3C159.7 266.1 160.073 265.827 160.34 265.48C160.62 265.24 160.76 264.987 160.76 264.72V263.34C160.386 263.193 159.986 263.08 159.56 263C159.146 262.92 158.74 262.88 158.34 262.88C157.553 262.88 156.906 263.053 156.4 263.4C155.906 263.733 155.66 264.18 155.66 264.74C155.66 265.26 155.853 265.7 156.24 266.06C156.626 266.407 157.12 266.58 157.72 266.58ZM169.769 268.1C169.062 268.1 168.415 267.96 167.829 267.68C167.242 267.387 166.735 266.993 166.309 266.5C165.895 266.007 165.569 265.44 165.329 264.8C165.102 264.16 164.989 263.487 164.989 262.78C164.989 262.033 165.109 261.333 165.349 260.68C165.589 260.013 165.922 259.44 166.349 258.96C166.775 258.467 167.282 258.08 167.869 257.8C168.469 257.507 169.129 257.36 169.849 257.36C170.689 257.36 171.422 257.56 172.049 257.96C172.689 258.36 173.215 258.88 173.629 259.52V257.54H175.569V267.7C175.569 268.46 175.429 269.133 175.149 269.72C174.869 270.307 174.475 270.8 173.969 271.2C173.475 271.613 172.889 271.927 172.209 272.14C171.529 272.353 170.795 272.46 170.009 272.46C168.849 272.46 167.882 272.26 167.109 271.86C166.349 271.473 165.709 270.927 165.189 270.22L166.429 269.06C166.829 269.62 167.342 270.047 167.969 270.34C168.609 270.633 169.289 270.78 170.009 270.78C170.462 270.78 170.889 270.72 171.289 270.6C171.702 270.48 172.062 270.293 172.369 270.04C172.675 269.787 172.915 269.467 173.089 269.08C173.275 268.693 173.369 268.233 173.369 267.7V266.1C172.995 266.74 172.482 267.233 171.829 267.58C171.175 267.927 170.489 268.1 169.769 268.1ZM170.489 266.32C170.822 266.32 171.142 266.267 171.449 266.16C171.755 266.04 172.035 265.887 172.289 265.7C172.555 265.5 172.782 265.28 172.969 265.04C173.155 264.787 173.289 264.52 173.369 264.24V261.5C173.235 261.167 173.062 260.867 172.849 260.6C172.635 260.32 172.389 260.08 172.109 259.88C171.842 259.68 171.555 259.527 171.249 259.42C170.942 259.3 170.635 259.24 170.329 259.24C169.849 259.24 169.415 259.347 169.029 259.56C168.655 259.76 168.335 260.033 168.069 260.38C167.802 260.713 167.595 261.093 167.449 261.52C167.302 261.947 167.229 262.387 167.229 262.84C167.229 263.32 167.309 263.773 167.469 264.2C167.642 264.613 167.875 264.98 168.169 265.3C168.462 265.607 168.802 265.853 169.189 266.04C169.589 266.227 170.022 266.32 170.489 266.32ZM182.947 268.2C182.133 268.2 181.393 268.06 180.727 267.78C180.06 267.487 179.487 267.093 179.007 266.6C178.54 266.107 178.173 265.533 177.907 264.88C177.653 264.227 177.527 263.533 177.527 262.8C177.527 262.067 177.653 261.373 177.907 260.72C178.173 260.053 178.54 259.473 179.007 258.98C179.487 258.473 180.06 258.08 180.727 257.8C181.393 257.507 182.14 257.36 182.967 257.36C183.78 257.36 184.513 257.507 185.167 257.8C185.833 258.093 186.4 258.487 186.867 258.98C187.333 259.46 187.687 260.027 187.927 260.68C188.18 261.32 188.307 261.993 188.307 262.7C188.307 262.86 188.3 263.013 188.287 263.16C188.273 263.293 188.26 263.407 188.247 263.5H179.867C179.907 263.967 180.013 264.387 180.187 264.76C180.373 265.133 180.607 265.46 180.887 265.74C181.18 266.007 181.507 266.213 181.867 266.36C182.24 266.507 182.627 266.58 183.027 266.58C183.32 266.58 183.607 266.547 183.887 266.48C184.18 266.4 184.447 266.293 184.687 266.16C184.927 266.013 185.14 265.84 185.327 265.64C185.513 265.44 185.66 265.22 185.767 264.98L187.647 265.52C187.287 266.307 186.687 266.953 185.847 267.46C185.02 267.953 184.053 268.2 182.947 268.2ZM186.127 261.98C186.087 261.54 185.973 261.133 185.787 260.76C185.613 260.387 185.387 260.073 185.107 259.82C184.827 259.553 184.5 259.347 184.127 259.2C183.753 259.053 183.36 258.98 182.947 258.98C182.533 258.98 182.14 259.053 181.767 259.2C181.407 259.347 181.087 259.553 180.807 259.82C180.527 260.073 180.3 260.387 180.127 260.76C179.953 261.133 179.847 261.54 179.807 261.98H186.127ZM193.901 268.2C193.061 268.2 192.221 268.067 191.381 267.8C190.555 267.52 189.841 267.127 189.241 266.62L190.121 265.22C190.748 265.673 191.368 266.02 191.981 266.26C192.595 266.487 193.221 266.6 193.861 266.6C194.515 266.6 195.028 266.473 195.401 266.22C195.788 265.967 195.981 265.607 195.981 265.14C195.981 264.7 195.768 264.38 195.341 264.18C194.915 263.98 194.248 263.76 193.341 263.52C192.688 263.347 192.128 263.18 191.661 263.02C191.195 262.86 190.815 262.673 190.521 262.46C190.228 262.247 190.015 262 189.881 261.72C189.748 261.44 189.681 261.1 189.681 260.7C189.681 260.167 189.781 259.693 189.981 259.28C190.195 258.867 190.481 258.52 190.841 258.24C191.215 257.947 191.648 257.727 192.141 257.58C192.635 257.433 193.168 257.36 193.741 257.36C194.528 257.36 195.261 257.48 195.941 257.72C196.621 257.96 197.228 258.307 197.761 258.76L196.821 260.08C195.848 259.307 194.815 258.92 193.721 258.92C193.161 258.92 192.688 259.04 192.301 259.28C191.928 259.507 191.741 259.873 191.741 260.38C191.741 260.593 191.781 260.773 191.861 260.92C191.941 261.067 192.068 261.193 192.241 261.3C192.428 261.407 192.661 261.507 192.941 261.6C193.235 261.68 193.595 261.773 194.021 261.88C194.728 262.053 195.335 262.227 195.841 262.4C196.361 262.573 196.788 262.78 197.121 263.02C197.455 263.247 197.701 263.52 197.861 263.84C198.021 264.147 198.101 264.52 198.101 264.96C198.101 265.96 197.721 266.753 196.961 267.34C196.215 267.913 195.195 268.2 193.901 268.2ZM200.023 260.18V257.64H201.843V260.18H200.023ZM200.023 268V265.44H201.843V268H200.023ZM217.038 266.02V268H209.398V266.02H212.238V259.04C212.118 259.2 211.931 259.367 211.678 259.54C211.424 259.713 211.144 259.873 210.838 260.02C210.531 260.167 210.211 260.293 209.878 260.4C209.544 260.493 209.251 260.54 208.998 260.54V258.48C209.264 258.48 209.571 258.4 209.918 258.24C210.278 258.08 210.618 257.893 210.938 257.68C211.271 257.467 211.558 257.253 211.798 257.04C212.051 256.827 212.198 256.673 212.238 256.58H214.498V266.02H217.038ZM218.478 263.52V261.54H224.458V263.52H218.478ZM236.756 263.9C236.756 264.54 236.616 265.127 236.336 265.66C236.069 266.18 235.702 266.627 235.236 267C234.769 267.373 234.229 267.66 233.616 267.86C233.002 268.06 232.349 268.16 231.656 268.16C230.949 268.16 230.282 268.053 229.656 267.84C229.042 267.613 228.509 267.307 228.056 266.92C227.602 266.533 227.242 266.073 226.976 265.54C226.722 265.007 226.596 264.427 226.596 263.8C226.596 263.387 226.669 263 226.816 262.64C226.962 262.28 227.149 261.96 227.376 261.68C227.616 261.387 227.882 261.133 228.176 260.92C228.469 260.707 228.762 260.533 229.056 260.4C228.509 260.16 228.042 259.793 227.656 259.3C227.269 258.807 227.076 258.247 227.076 257.62C227.076 257.007 227.216 256.467 227.496 256C227.776 255.52 228.136 255.12 228.576 254.8C229.016 254.467 229.509 254.22 230.056 254.06C230.602 253.887 231.142 253.8 231.676 253.8C232.209 253.8 232.749 253.887 233.296 254.06C233.856 254.22 234.356 254.46 234.796 254.78C235.249 255.1 235.616 255.5 235.896 255.98C236.176 256.447 236.316 256.987 236.316 257.6C236.316 258.227 236.116 258.793 235.716 259.3C235.329 259.793 234.856 260.16 234.296 260.4C234.616 260.547 234.922 260.733 235.216 260.96C235.522 261.173 235.789 261.433 236.016 261.74C236.242 262.033 236.422 262.36 236.556 262.72C236.689 263.08 236.756 263.473 236.756 263.9ZM234.536 263.76C234.536 263.373 234.449 263.033 234.276 262.74C234.116 262.433 233.896 262.173 233.616 261.96C233.349 261.747 233.042 261.587 232.696 261.48C232.362 261.373 232.022 261.32 231.676 261.32C231.316 261.32 230.962 261.38 230.616 261.5C230.282 261.607 229.982 261.767 229.716 261.98C229.462 262.193 229.256 262.453 229.096 262.76C228.936 263.053 228.856 263.387 228.856 263.76C228.856 264.133 228.936 264.473 229.096 264.78C229.269 265.073 229.489 265.327 229.756 265.54C230.022 265.74 230.322 265.9 230.656 266.02C231.002 266.127 231.349 266.18 231.696 266.18C232.056 266.18 232.402 266.12 232.736 266C233.082 265.88 233.389 265.713 233.656 265.5C233.922 265.287 234.136 265.033 234.296 264.74C234.456 264.447 234.536 264.12 234.536 263.76ZM229.296 257.7C229.296 258.02 229.369 258.3 229.516 258.54C229.662 258.78 229.849 258.98 230.076 259.14C230.302 259.3 230.556 259.427 230.836 259.52C231.116 259.6 231.396 259.64 231.676 259.64C231.956 259.64 232.236 259.6 232.516 259.52C232.809 259.427 233.069 259.3 233.296 259.14C233.522 258.967 233.709 258.76 233.856 258.52C234.002 258.267 234.076 257.98 234.076 257.66C234.076 257.367 234.009 257.107 233.876 256.88C233.742 256.64 233.562 256.44 233.336 256.28C233.122 256.107 232.869 255.98 232.576 255.9C232.296 255.807 231.996 255.76 231.676 255.76C231.356 255.76 231.049 255.807 230.756 255.9C230.476 255.993 230.222 256.127 229.996 256.3C229.782 256.46 229.609 256.66 229.476 256.9C229.356 257.14 229.296 257.407 229.296 257.7ZM243.743 270.46C243.943 270.5 244.136 270.533 244.323 270.56C244.523 270.587 244.683 270.6 244.803 270.6C244.976 270.6 245.123 270.56 245.243 270.48C245.376 270.413 245.509 270.287 245.643 270.1C245.776 269.913 245.909 269.647 246.043 269.3C246.189 268.967 246.356 268.533 246.543 268L242.243 257.54H244.503L247.743 266.06L250.623 257.54H252.703L247.963 270.42C247.749 271.02 247.376 271.52 246.843 271.92C246.323 272.333 245.649 272.54 244.823 272.54C244.663 272.54 244.496 272.527 244.323 272.5C244.149 272.487 243.956 272.447 243.743 272.38V270.46ZM258.708 268.2C257.895 268.2 257.155 268.06 256.488 267.78C255.822 267.487 255.248 267.093 254.768 266.6C254.302 266.107 253.935 265.533 253.668 264.88C253.415 264.227 253.288 263.533 253.288 262.8C253.288 262.067 253.415 261.373 253.668 260.72C253.935 260.053 254.302 259.473 254.768 258.98C255.248 258.473 255.822 258.08 256.488 257.8C257.155 257.507 257.902 257.36 258.728 257.36C259.542 257.36 260.275 257.507 260.928 257.8C261.595 258.093 262.162 258.487 262.628 258.98C263.095 259.46 263.448 260.027 263.688 260.68C263.942 261.32 264.068 261.993 264.068 262.7C264.068 262.86 264.062 263.013 264.048 263.16C264.035 263.293 264.022 263.407 264.008 263.5H255.628C255.668 263.967 255.775 264.387 255.948 264.76C256.135 265.133 256.368 265.46 256.648 265.74C256.942 266.007 257.268 266.213 257.628 266.36C258.002 266.507 258.388 266.58 258.788 266.58C259.082 266.58 259.368 266.547 259.648 266.48C259.942 266.4 260.208 266.293 260.448 266.16C260.688 266.013 260.902 265.84 261.088 265.64C261.275 265.44 261.422 265.22 261.528 264.98L263.408 265.52C263.048 266.307 262.448 266.953 261.608 267.46C260.782 267.953 259.815 268.2 258.708 268.2ZM261.888 261.98C261.848 261.54 261.735 261.133 261.548 260.76C261.375 260.387 261.148 260.073 260.868 259.82C260.588 259.553 260.262 259.347 259.888 259.2C259.515 259.053 259.122 258.98 258.708 258.98C258.295 258.98 257.902 259.053 257.528 259.2C257.168 259.347 256.848 259.553 256.568 259.82C256.288 260.073 256.062 260.387 255.888 260.76C255.715 261.133 255.608 261.54 255.568 261.98H261.888ZM268.643 268.2C268.136 268.2 267.663 268.12 267.223 267.96C266.796 267.787 266.423 267.553 266.103 267.26C265.796 266.967 265.55 266.62 265.363 266.22C265.19 265.82 265.103 265.387 265.103 264.92C265.103 264.427 265.21 263.98 265.423 263.58C265.636 263.18 265.936 262.833 266.323 262.54C266.723 262.247 267.19 262.02 267.723 261.86C268.27 261.7 268.87 261.62 269.523 261.62C270.016 261.62 270.503 261.667 270.983 261.76C271.463 261.84 271.896 261.953 272.283 262.1V261.38C272.283 260.607 272.063 260.007 271.623 259.58C271.183 259.14 270.55 258.92 269.723 258.92C269.163 258.92 268.61 259.027 268.063 259.24C267.53 259.44 266.976 259.733 266.403 260.12L265.723 258.72C267.07 257.813 268.47 257.36 269.923 257.36C271.363 257.36 272.483 257.727 273.283 258.46C274.083 259.193 274.483 260.247 274.483 261.62V265.4C274.483 265.867 274.676 266.107 275.063 266.12V268C274.85 268.04 274.663 268.067 274.503 268.08C274.356 268.093 274.21 268.1 274.063 268.1C273.636 268.1 273.303 267.993 273.063 267.78C272.836 267.567 272.696 267.293 272.643 266.96L272.583 266.3C272.116 266.913 271.536 267.387 270.843 267.72C270.163 268.04 269.43 268.2 268.643 268.2ZM269.243 266.58C269.776 266.58 270.276 266.487 270.743 266.3C271.223 266.1 271.596 265.827 271.863 265.48C272.143 265.24 272.283 264.987 272.283 264.72V263.34C271.91 263.193 271.51 263.08 271.083 263C270.67 262.92 270.263 262.88 269.863 262.88C269.076 262.88 268.43 263.053 267.923 263.4C267.43 263.733 267.183 264.18 267.183 264.74C267.183 265.26 267.376 265.7 267.763 266.06C268.15 266.407 268.643 266.58 269.243 266.58ZM283.032 259.44C282.179 259.467 281.419 259.667 280.752 260.04C280.099 260.4 279.632 260.92 279.352 261.6V268H277.152V257.54H279.192V259.88C279.552 259.16 280.019 258.587 280.592 258.16C281.179 257.72 281.805 257.48 282.472 257.44C282.605 257.44 282.712 257.44 282.792 257.44C282.885 257.44 282.965 257.447 283.032 257.46V259.44ZM288.433 268.2C287.593 268.2 286.753 268.067 285.913 267.8C285.086 267.52 284.373 267.127 283.773 266.62L284.653 265.22C285.279 265.673 285.899 266.02 286.513 266.26C287.126 266.487 287.753 266.6 288.393 266.6C289.046 266.6 289.559 266.473 289.933 266.22C290.319 265.967 290.513 265.607 290.513 265.14C290.513 264.7 290.299 264.38 289.873 264.18C289.446 263.98 288.779 263.76 287.873 263.52C287.219 263.347 286.659 263.18 286.193 263.02C285.726 262.86 285.346 262.673 285.053 262.46C284.759 262.247 284.546 262 284.413 261.72C284.279 261.44 284.213 261.1 284.213 260.7C284.213 260.167 284.313 259.693 284.513 259.28C284.726 258.867 285.013 258.52 285.373 258.24C285.746 257.947 286.179 257.727 286.673 257.58C287.166 257.433 287.699 257.36 288.273 257.36C289.059 257.36 289.793 257.48 290.473 257.72C291.153 257.96 291.759 258.307 292.293 258.76L291.353 260.08C290.379 259.307 289.346 258.92 288.253 258.92C287.693 258.92 287.219 259.04 286.833 259.28C286.459 259.507 286.273 259.873 286.273 260.38C286.273 260.593 286.313 260.773 286.393 260.92C286.473 261.067 286.599 261.193 286.773 261.3C286.959 261.407 287.193 261.507 287.473 261.6C287.766 261.68 288.126 261.773 288.553 261.88C289.259 262.053 289.866 262.227 290.373 262.4C290.893 262.573 291.319 262.78 291.653 263.02C291.986 263.247 292.233 263.52 292.393 263.84C292.553 264.147 292.633 264.52 292.633 264.96C292.633 265.96 292.253 266.753 291.493 267.34C290.746 267.913 289.726 268.2 288.433 268.2ZM304.196 268.2C303.369 268.2 302.622 268.053 301.956 267.76C301.302 267.467 300.742 267.073 300.276 266.58C299.809 266.087 299.449 265.513 299.196 264.86C298.942 264.193 298.816 263.5 298.816 262.78C298.816 262.06 298.942 261.373 299.196 260.72C299.449 260.053 299.809 259.473 300.276 258.98C300.756 258.487 301.322 258.093 301.976 257.8C302.642 257.507 303.382 257.36 304.196 257.36C305.009 257.36 305.742 257.507 306.396 257.8C307.062 258.093 307.629 258.487 308.096 258.98C308.576 259.473 308.942 260.053 309.196 260.72C309.449 261.373 309.576 262.06 309.576 262.78C309.576 263.5 309.449 264.193 309.196 264.86C308.942 265.513 308.576 266.087 308.096 266.58C307.629 267.073 307.062 267.467 306.396 267.76C305.742 268.053 305.009 268.2 304.196 268.2ZM301.076 262.8C301.076 263.307 301.156 263.773 301.316 264.2C301.476 264.627 301.696 265 301.976 265.32C302.256 265.627 302.582 265.873 302.956 266.06C303.342 266.233 303.756 266.32 304.196 266.32C304.636 266.32 305.042 266.233 305.416 266.06C305.802 265.873 306.136 265.62 306.416 265.3C306.696 264.98 306.916 264.607 307.076 264.18C307.236 263.753 307.316 263.287 307.316 262.78C307.316 262.287 307.236 261.827 307.076 261.4C306.916 260.96 306.696 260.58 306.416 260.26C306.136 259.94 305.802 259.693 305.416 259.52C305.042 259.333 304.636 259.24 304.196 259.24C303.769 259.24 303.362 259.333 302.976 259.52C302.602 259.707 302.276 259.96 301.996 260.28C301.716 260.6 301.489 260.98 301.316 261.42C301.156 261.847 301.076 262.307 301.076 262.8ZM311.547 253.4H313.747V264.98C313.747 265.367 313.847 265.673 314.047 265.9C314.247 266.113 314.527 266.22 314.887 266.22C315.034 266.22 315.2 266.193 315.387 266.14C315.587 266.087 315.774 266.027 315.947 265.96L316.267 267.68C315.947 267.827 315.567 267.94 315.127 268.02C314.687 268.113 314.294 268.16 313.947 268.16C313.187 268.16 312.594 267.953 312.167 267.54C311.754 267.127 311.547 266.54 311.547 265.78V253.4ZM321.803 268.2C321.096 268.2 320.443 268.06 319.843 267.78C319.243 267.487 318.723 267.093 318.283 266.6C317.843 266.107 317.496 265.533 317.243 264.88C317.003 264.213 316.883 263.5 316.883 262.74C316.883 262.007 316.996 261.32 317.223 260.68C317.463 260.027 317.789 259.453 318.203 258.96C318.629 258.467 319.123 258.08 319.683 257.8C320.256 257.507 320.883 257.36 321.563 257.36C322.403 257.36 323.143 257.567 323.783 257.98C324.423 258.38 324.923 258.893 325.283 259.52V253.4H327.483V265.4C327.483 265.653 327.523 265.833 327.603 265.94C327.696 266.047 327.856 266.107 328.083 266.12V268C327.856 268.04 327.669 268.067 327.523 268.08C327.389 268.093 327.276 268.1 327.183 268.1C326.743 268.1 326.383 267.987 326.103 267.76C325.823 267.533 325.669 267.24 325.643 266.88L325.603 266.1C325.216 266.753 324.689 267.267 324.023 267.64C323.356 268.013 322.616 268.2 321.803 268.2ZM322.343 266.32C322.663 266.32 322.983 266.267 323.303 266.16C323.623 266.053 323.916 265.907 324.183 265.72C324.449 265.533 324.676 265.313 324.863 265.06C325.063 264.807 325.203 264.533 325.283 264.24V261.5C325.163 261.167 324.989 260.86 324.763 260.58C324.549 260.3 324.303 260.06 324.023 259.86C323.743 259.66 323.443 259.507 323.123 259.4C322.816 259.293 322.503 259.24 322.183 259.24C321.743 259.24 321.336 259.34 320.963 259.54C320.603 259.74 320.289 260.007 320.023 260.34C319.756 260.673 319.543 261.053 319.383 261.48C319.236 261.907 319.163 262.347 319.163 262.8C319.163 263.28 319.243 263.733 319.403 264.16C319.576 264.587 319.809 264.96 320.103 265.28C320.396 265.6 320.729 265.853 321.103 266.04C321.489 266.227 321.903 266.32 322.343 266.32Z" fill="#296BAD"/>
<line x1="337" y1="565" x2="438" y2="565" stroke="#296BAD" stroke-width="8"/>
<line x1="337" y1="70" x2="438" y2="70" stroke="#296BAD" stroke-width="8"/>
<line x1="434" y1="568.189" x2="434" y2="74.0002" stroke="#296BAD" stroke-width="8"/>
<line x1="438" y1="317.5" x2="538" y2="317.5" stroke="#296BAD" stroke-width="8"/>
<defs>
<clipPath id="clip0">
<rect x="154" y="392" width="74" height="86" fill="white"/>
</clipPath>
</defs>
</svg>
